<?xml version="1.0" encoding="UTF-8" standalone="no"?>
<!-- Created with Inkscape (http://www.inkscape.org/) -->

<svg
   xmlns:dc="http://purl.org/dc/elements/1.1/"
   xmlns:cc="http://creativecommons.org/ns#"
   xmlns:rdf="http://www.w3.org/1999/02/22-rdf-syntax-ns#"
   xmlns:svg="http://www.w3.org/2000/svg"
   xmlns="http://www.w3.org/2000/svg"
   xmlns:sodipodi="http://sodipodi.sourceforge.net/DTD/sodipodi-0.dtd"
   xmlns:inkscape="http://www.inkscape.org/namespaces/inkscape"
   id="svg2"
   version="1.1"
   inkscape:version="0.91 r"
   xml:space="preserve"
   width="380"
   height="380"
   viewBox="0 0 380.00001 380"
   sodipodi:docname="oe-icon.svg"><metadata
     id="metadata8"><rdf:RDF><cc:Work
         rdf:about=""><dc:format>image/svg+xml</dc:format><dc:type
           rdf:resource="http://purl.org/dc/dcmitype/StillImage" /><dc:title></dc:title></cc:Work></rdf:RDF></metadata><defs
     id="defs6"><clipPath
       clipPathUnits="userSpaceOnUse"
       id="clipPath16"><path
         d="m 0,0 600,0 0,600.75 -600,0 L 0,0 Z"
         id="path18"
         inkscape:connector-curvature="0" /></clipPath><clipPath
       clipPathUnits="userSpaceOnUse"
       id="clipPath28"><path
         d="m 0,0 600,0 0,600.75 -600,0 L 0,0 Z"
         id="path30"
         inkscape:connector-curvature="0" /></clipPath><clipPath
       clipPathUnits="userSpaceOnUse"
       id="clipPath34"><path
         d="M 0,0 600,0 600,600 0,600 0,0 Z"
         id="path36"
         inkscape:connector-curvature="0" /></clipPath><clipPath
       clipPathUnits="userSpaceOnUse"
       id="clipPath46"><path
         d="m 0,0 600,0 0,600.75 -600,0 L 0,0 Z"
         id="path48"
         inkscape:connector-curvature="0" /></clipPath><clipPath
       clipPathUnits="userSpaceOnUse"
       id="clipPath52"><path
         d="M 0,0 600,0 600,600 0,600 0,0 Z"
         id="path54"
         inkscape:connector-curvature="0" /></clipPath></defs><sodipodi:namedview
     pagecolor="#ffffff"
     bordercolor="#666666"
     borderopacity="1"
     objecttolerance="10"
     gridtolerance="10"
     guidetolerance="10"
     inkscape:pageopacity="0"
     inkscape:pageshadow="2"
     inkscape:window-width="1920"
     inkscape:window-height="1056"
     id="namedview4"
     showgrid="false"
     inkscape:zoom="0.62933333"
     inkscape:cx="590.04622"
     inkscape:cy="134.26233"
     inkscape:window-x="0"
     inkscape:window-y="24"
     inkscape:window-maximized="1"
     inkscape:current-layer="g10"
     fit-margin-top="0"
     fit-margin-left="0"
     fit-margin-right="0"
     fit-margin-bottom="0" /><g
     id="g10"
     inkscape:groupmode="layer"
     inkscape:label="OpenEddi logos, 5-4-15"
     transform="matrix(1.25,0,0,1.25,-230.68089,-120.61047)"><g
       id="g3721"
       transform="translate(45.264149,-4.798464)"><g
         id="text58"
         style="font-variant:normal;font-weight:normal;font-size:402.49499512px;font-family:'Special Elite';-inkscape-font-specification:SpecialElite-Regular;writing-mode:lr-tb;fill:#000000;fill-opacity:1;fill-rule:nonzero;stroke:none"><path
           id="path3537"
           d="m 397.97711,256.2348 q 0,4.12714 -0.78612,8.05776 -0.78612,3.73408 -1.76878,7.6647 -0.98265,3.73408 -1.76878,7.6647 -0.78612,3.93061 -0.78612,7.86123 0,1.57225 0.19653,3.14449 0.39306,1.37572 0.39306,2.94796 0,3.93062 -1.37571,7.46817 -1.17919,3.53756 -2.94796,6.87858 -1.57225,2.94796 -1.96531,6.09245 -0.19653,3.14449 -0.39306,6.28899 0,3.14449 -0.58959,6.28898 -0.5896,3.14449 -2.35837,5.89592 -0.39306,1.96531 -1.17919,5.89593 -0.58959,3.73408 -1.57224,5.30633 -0.19653,0.39306 -1.17919,0.58959 -0.98265,0.19653 -2.16184,0.39306 -1.17918,0.19653 -2.5549,0.78612 -1.37571,0.5896 -2.35837,1.76878 -0.98265,0.98265 -1.57224,2.75143 -0.58959,1.76878 -1.37572,3.53755 -0.78612,1.76878 -1.9653,3.1445 -0.98266,1.17918 -2.75144,1.17918 -1.76877,0 -3.14449,-0.58959 -1.37571,-0.78612 -2.75143,-1.37572 -1.37571,-0.78612 -2.75143,-1.17918 -1.37571,-0.39306 -3.34102,0.19653 0.58959,0.39306 0.39306,1.96531 -0.19653,1.37571 0,2.94796 0.39306,1.57225 1.76878,2.94796 1.37571,1.37572 4.91327,1.37572 1.76877,0 3.34102,-0.19653 1.76878,-0.19654 3.53755,-0.5896 -1.57224,4.32368 -3.73408,6.87858 -2.16184,2.35837 -4.91327,4.32368 -2.5549,1.76877 -5.50286,3.73408 -2.75143,1.76878 -5.50286,4.71674 -3.34103,3.34102 -6.48552,4.12714 -2.94796,0.78613 -7.07511,1.96531 -4.71673,1.37572 -6.68204,3.34103 -1.96531,1.9653 -4.32368,3.73408 -2.35837,1.76878 -6.48551,2.94796 -3.93062,1.37572 -12.57797,1.37572 -7.86123,0 -15.72246,-0.5896 -7.6647,-0.58959 -15.3294,-1.57224 -3.53756,-0.39306 -5.89593,-1.37572 -2.16183,-0.78612 -4.12714,-1.9653 -1.96531,-0.98266 -3.93062,-2.16184 -1.9653,-1.17919 -4.91327,-2.35837 -1.57224,-0.58959 -3.73408,-1.57225 -2.16184,-0.78612 -4.52021,-1.76878 -2.35837,-0.98265 -4.32367,-1.9653 -1.96531,-1.17919 -3.1445,-2.16184 -1.37571,-1.17919 -1.9653,-2.5549 -0.39306,-1.57225 -0.78613,-3.14449 -0.39306,-1.76878 -0.98265,-3.1445 -0.39306,-1.57224 -1.76878,-2.5549 -2.94796,-0.39306 -5.69939,-0.98265 -2.75143,-0.78612 -5.50286,-1.76878 -0.78612,-2.16183 -1.57225,-4.12714 -0.58959,-2.16184 -1.37571,-4.32368 -2.5549,-2.75143 -4.91327,-4.52021 -2.35837,-1.9653 -4.12715,-3.93061 -1.76877,-1.96531 -3.14449,-4.52021 -1.17918,-2.75143 -1.57224,-7.07511 -0.5896,-5.1098 -2.35837,-9.82653 -1.76878,-4.91327 -3.73409,-9.63001 -1.76878,-4.71674 -3.34102,-9.63001 -1.37572,-4.91327 -1.37572,-10.02307 0,-5.30633 2.16184,-10.80919 -5.69939,-8.05776 -7.07511,-17.49124 -1.37571,-9.63 -1.37571,-19.26001 0,-3.14449 0,-6.09245 0.19653,-3.1445 0.19653,-6.09246 0,-3.34102 -1.57225,-5.1098 -1.37571,-1.96531 -1.37571,-4.71674 0,-4.32367 1.17918,-8.45082 1.37572,-4.12714 1.76878,-8.45082 -2.5549,-0.39306 -3.34102,-1.96531 l 0.39306,-0.78612 q 1.37571,-2.35837 2.16184,-4.32368 0.98265,-1.96531 1.37571,-3.73408 0.39306,-1.76878 0.78613,-3.73409 0.39306,-1.96531 0.98265,-4.5202 1.57224,-8.05777 3.93061,-15.72247 2.5549,-7.6647 4.91327,-15.52593 2.5549,-9.04041 6.28899,-15.91899 3.73408,-6.87857 11.59531,-12.7745 3.34103,-2.75143 6.09246,-5.89592 2.75143,-3.14449 3.93061,-7.46817 0.98265,-0.78612 2.16184,-0.98265 1.17918,-0.19653 2.35837,-0.19653 l 1.57224,0 q 1.37572,0 2.5549,-0.19653 1.37572,-0.39306 2.5549,-1.37572 2.94797,-2.75143 5.1098,-3.93061 2.35837,-1.17919 6.28899,-1.17919 2.75143,0 5.30633,0.58959 2.5549,0.39307 5.30633,0.98266 0.98265,-0.98266 2.75143,-2.5549 1.96531,-1.76878 3.34102,-2.35837 l 0,0.58959 q 0,0.78612 0.19653,1.57225 0.39306,0.58959 1.37572,0.58959 2.5549,0 4.91327,-1.17919 2.35837,-1.17918 4.91327,-1.57224 5.69939,-0.98266 11.39878,-2.94796 5.69939,-2.16184 11.59532,-2.16184 6.28898,0 13.36409,0.78612 7.27164,0.78612 14.15021,2.94796 6.87858,2.16184 12.7745,6.09246 5.89592,3.73408 9.43348,9.82653 1.57224,2.75144 3.14449,4.32368 1.57225,1.37572 3.14449,2.5549 1.57225,0.98266 3.14449,2.16184 1.57225,0.98265 3.34103,2.94796 3.73408,4.32368 5.89592,9.43348 2.35837,4.91327 6.48551,8.84388 5.1098,4.71674 7.46817,11.39879 2.5549,6.68204 2.5549,13.56062 0,2.16184 -0.58959,4.32367 -0.58959,2.16184 -0.58959,4.52021 0,1.96531 0.78612,4.12715 0.98266,2.16184 2.16184,4.52021 1.17919,2.35836 2.16184,4.91326 0.98265,2.5549 1.37571,4.91327 0.5896,5.30633 1.76878,10.41613 1.17919,4.91327 2.35837,10.2196 1.57225,6.68205 2.35837,13.56063 0.78612,6.87857 0.58959,13.75715 z m -32.03451,-1.37572 q 0,-11.00572 -1.96531,-21.81491 -1.76878,-10.80919 -3.53755,-21.61838 -0.78613,-3.93062 -2.5549,-7.46817 -1.57225,-3.53756 -2.75143,-7.27164 -2.35837,-7.07511 -4.52021,-14.15022 -2.16184,-7.0751 -4.32368,-14.15021 -1.37571,-4.32368 -5.50286,-7.46817 -4.12715,-3.34102 -9.63001,-5.50286 -5.50286,-2.35837 -11.98837,-3.73408 -6.28899,-1.57225 -12.18491,-2.35837 -5.89592,-0.98266 -11.00572,-1.17919 -4.91327,-0.39306 -7.46817,-0.39306 l 2.5549,-0.19653 -2.16184,0.19653 q -4.32368,0 -8.64735,-0.39306 -4.12715,-0.39306 -8.45083,-0.39306 -3.53755,0 -7.0751,0.58959 -3.34103,0.39306 -6.09246,2.5549 -6.48551,5.1098 -12.1849,9.63001 -5.6994,4.32367 -9.43348,11.98837 -1.17918,2.5549 -2.5549,3.73409 -1.37572,0.98265 -2.75143,2.16184 -1.17919,0.98265 -2.16184,2.35836 -0.98265,1.37572 -1.37571,4.52021 -0.98266,5.69939 -2.35837,11.39879 -1.17919,5.50286 -1.17919,11.20225 0,6.09245 -1.17918,12.18491 -0.98266,5.89592 -3.34103,11.59531 -0.58959,1.57225 -1.17918,2.94796 -0.39306,1.37572 -0.39306,2.94796 0,2.94797 1.37571,5.1098 1.37572,1.96531 1.37572,3.53756 0,0.78612 -0.58959,0.98265 -0.39306,0 -0.98266,0.39306 -0.39306,0.19653 -0.98265,1.17919 -0.39306,0.98265 -0.39306,3.53755 0,5.69939 0,11.59532 0.19653,5.89592 1.17918,11.59531 0.58959,3.34102 1.96531,6.48552 1.57225,2.94796 1.57225,6.28898 0,2.16184 -0.98266,4.32368 -0.98265,2.16183 -0.98265,4.5202 0,2.75143 1.57224,4.52021 1.57225,1.57225 3.1445,3.73409 1.17918,1.57224 1.9653,4.12714 0.98266,2.35837 1.76878,4.52021 0.98265,2.16184 1.76878,3.73408 0.78612,1.57225 1.76877,1.57225 0.78613,0 1.37572,-0.19653 0.58959,-0.39306 1.37572,-0.39306 3.93061,0 5.89592,3.53755 2.16184,3.34102 2.16184,6.68205 0,2.75143 1.57224,4.71674 1.57225,1.76877 3.73409,3.34102 2.16183,1.57224 4.32367,3.14449 2.35837,1.37572 3.93062,3.14449 2.5549,2.94796 3.93061,3.93062 1.57225,0.98265 2.75143,1.37571 1.17919,0.19653 2.16184,0.39306 1.17919,0.19654 2.94796,1.37572 2.16184,1.57225 4.32368,3.53755 2.35837,1.76878 4.52021,3.34103 6.09245,4.32367 13.56062,5.30633 7.6647,0.78612 14.93634,0.78612 2.94796,0 5.50286,-1.37572 2.5549,-1.37571 5.1098,-2.94796 2.5549,-1.76877 5.1098,-3.14449 2.75143,-1.37571 5.89592,-1.37571 2.5549,0 5.30633,1.17918 4.52021,-6.87858 8.64736,-11.00572 4.12714,-4.12715 7.46816,-8.05776 3.34103,-3.93062 5.6994,-9.04042 2.35837,-5.1098 3.34102,-13.95368 0.39306,-3.73409 1.96531,-6.87858 1.76877,-3.34102 2.16184,-6.87858 0.98265,-7.86123 0.98265,-15.72246 0.19653,-7.86123 1.37571,-15.72246 0.39307,-3.14449 0.5896,-6.28898 0.19653,-3.14449 0.19653,-6.48552 z"
           inkscape:connector-curvature="0" /></g><g
         id="text64"
         style="font-variant:normal;font-weight:normal;font-size:251.55749512px;font-family:'Special Elite';-inkscape-font-specification:SpecialElite-Regular;writing-mode:lr-tb;fill:#1b55aa;fill-opacity:1;fill-rule:nonzero;stroke:none"><path
           id="path3540"
           d="m 345.77441,287.82836 q 0,3.31643 -1.10548,5.65022 -0.98264,2.33378 -2.70228,4.17625 -1.5968,1.84246 -3.80775,3.43926 -2.08812,1.5968 -4.29908,3.43926 -1.71963,1.47397 -3.07077,2.21096 -1.35114,0.73698 -2.70228,1.2283 -1.22831,0.49133 -2.70227,0.98265 -1.35114,0.49132 -3.19361,1.35114 -2.45661,1.22831 -4.17624,2.33378 -1.5968,0.98265 -3.31644,1.84247 -1.5968,0.85981 -3.56209,1.35114 -1.96529,0.61415 -4.91323,0.98264 -4.91323,0.61416 -9.9493,1.47397 -4.91323,0.85982 -9.82646,0.85982 -0.98265,0 -2.08812,-0.49133 -0.98265,-0.36849 -2.33379,-0.85981 -1.35114,-0.36849 -3.07077,-0.85982 -1.5968,-0.36849 -3.93059,-0.36849 -2.45661,0 -3.93058,-0.73698 -1.47397,-0.73699 -2.70228,-1.71964 -1.10548,-0.98264 -2.33379,-2.08812 -1.2283,-1.22831 -3.1936,-2.08812 -7.36984,-3.31644 -12.52874,-7.98401 -5.15889,-4.66757 -8.84382,-10.44061 -3.68492,-5.77305 -6.14154,-12.52875 -2.45661,-6.75569 -4.17624,-14.12554 -1.35114,-5.15889 -1.35114,-10.31779 0,-6.75569 3.1936,-12.52874 -1.22831,-3.43926 -1.22831,-6.63286 0,-2.33379 1.35114,-6.87853 1.35114,-4.66757 3.43926,-9.33514 2.21096,-4.66757 4.66757,-8.3525 2.57945,-3.80775 4.7904,-4.66757 1.71963,-0.61415 2.33379,-0.98264 0.73698,-0.49133 0.73698,-2.45662 0,-1.47397 1.10548,-2.45662 1.22831,-0.98264 2.82511,-1.5968 1.71963,-0.61415 3.31643,-1.10547 1.71963,-0.49133 2.82511,-0.98265 4.54474,-2.21095 8.59816,-3.68492 4.17624,-1.5968 8.22966,-2.57945 4.17625,-1.10548 8.59816,-1.5968 4.42191,-0.49132 9.45797,-0.49132 2.70228,0 5.28172,0.73698 2.57945,0.73699 4.91324,1.96529 2.45661,1.10548 4.7904,2.57945 2.33378,1.35114 4.54474,2.70228 l -0.12283,0 q 1.84246,0.24566 3.43926,1.10548 1.71963,0.73698 3.56209,0.98264 1.71963,2.08813 4.42191,4.05342 2.82511,1.84246 5.40456,3.93058 2.70228,2.08813 4.54474,4.54474 1.96529,2.33379 1.96529,5.40456 0,0.49132 -0.12283,0.98265 0,0.49132 -0.12283,1.10547 l 0.49132,-0.61415 q 0.49133,0.36849 0.85982,1.22831 0.49132,0.85981 0.85981,1.96529 0.3685,0.98265 0.61416,2.08812 0.24566,0.98265 0.36849,1.5968 0.98265,1.59681 2.57945,2.57945 1.71963,0.98265 2.70227,2.70228 -1.2283,1.22831 -1.2283,3.1936 0,2.08812 0.85981,4.17625 0.85982,1.96529 0.85982,4.05341 0,2.45662 -0.24566,4.79041 -0.24567,2.21095 -0.24567,4.66757 0,1.84246 -1.47397,2.82511 -1.35113,0.98264 -3.07077,1.71963 -1.5968,0.73698 -2.94793,1.47397 -1.35114,0.73698 -1.35114,2.08812 0,0.98265 -1.22831,0.98265 -1.10548,-0.12283 -1.84246,-0.12283 -5.40456,0 -10.80912,-1.35114 -5.28172,-1.35114 -10.56344,-1.35114 -5.77305,0 -11.42327,0.85981 -5.65022,0.73699 -11.42327,0.73699 -4.29907,0 -8.59815,-0.24566 -4.17625,-0.24566 -8.47533,-0.24566 -1.10547,0 -4.17624,0.49132 -3.07078,0.36849 -6.51004,1.10548 -3.31643,0.61415 -6.3872,1.5968 -3.07077,0.85981 -4.29908,1.71963 -0.12283,0.61415 -0.12283,1.71963 0,5.77305 3.31643,11.91459 3.43927,6.14154 8.96665,11.1776 5.52739,5.03606 12.40591,8.3525 6.87853,3.31643 13.87988,3.31643 4.05342,0 7.98401,0.36849 4.05341,0.24566 7.86117,1.71963 3.31643,-1.5968 6.01871,-3.68492 2.82511,-2.08813 5.40455,-4.42191 2.57945,-2.33379 5.03607,-4.7904 2.45661,-2.45662 5.03606,-4.91324 0.49132,-0.49132 2.33379,-0.85981 1.96529,-0.49132 4.17624,-0.73699 2.21096,-0.36849 4.17625,-0.49132 2.08812,-0.24566 2.82511,-0.24566 2.82511,0 5.28172,0.85981 0.73699,2.82511 0.73699,5.52739 z m -18.42462,-49.86931 q 0,-1.84246 -0.61416,-3.56209 -0.61415,-1.71963 -0.98264,-3.56209 -0.61416,-3.43927 -0.61416,-6.63287 0,-3.31643 -0.98264,-6.63286 l -0.12283,0 q 0,0.73698 -0.49133,1.47397 -0.49132,0.61415 -1.35114,0.61415 -1.47397,0 -2.8251,-0.73698 -1.35114,-0.73699 -2.33379,-1.84246 -4.66757,-2.08813 -8.47533,-3.93059 -3.68492,-1.84246 -7.49267,-3.1936 -3.68493,-1.47397 -7.98401,-2.21096 -4.17625,-0.85981 -9.70363,-0.85981 -0.49132,0 -0.98265,0.12283 -0.36849,0 -0.73698,0.36849 l 0.61415,1.35114 -0.98265,0.24566 q -3.31643,0.61416 -5.52738,1.22831 -2.08813,0.49132 -3.80776,1.47397 -1.71963,0.98265 -3.43926,2.45662 -1.5968,1.35114 -4.17625,3.56209 -1.2283,1.10548 -2.70227,1.71963 -1.35114,0.49132 -2.82511,0.98265 -1.35114,0.36849 -2.70228,0.85981 -1.22831,0.49133 -2.08812,1.5968 -0.85982,3.07077 -2.57945,6.01871 -1.5968,2.82511 -1.5968,6.01871 0,1.84246 1.47397,3.31643 1.5968,1.35114 3.93058,2.33379 2.45662,0.98265 5.28173,1.71963 2.94794,0.73699 5.77305,1.10548 2.8251,0.36849 5.15889,0.61415 2.45662,0.12283 3.80776,0.12283 4.66757,0 9.21231,-0.85981 4.54474,-0.98265 9.21231,-0.98265 4.7904,0 9.5808,0.49132 4.7904,0.3685 9.5808,0.3685 1.22831,0 3.68493,-0.12283 2.45661,-0.12283 4.7904,-0.61416 2.45661,-0.61415 4.17625,-1.5968 1.84246,-1.10548 1.84246,-2.82511 z"
           inkscape:connector-curvature="0" /></g></g></g></svg>