<?xml version="1.0" encoding="UTF-8" standalone="no"?>
<!-- Created with Inkscape (http://www.inkscape.org/) -->

<svg
   xmlns:dc="http://purl.org/dc/elements/1.1/"
   xmlns:cc="http://creativecommons.org/ns#"
   xmlns:rdf="http://www.w3.org/1999/02/22-rdf-syntax-ns#"
   xmlns:svg="http://www.w3.org/2000/svg"
   xmlns="http://www.w3.org/2000/svg"
   xmlns:sodipodi="http://sodipodi.sourceforge.net/DTD/sodipodi-0.dtd"
   xmlns:inkscape="http://www.inkscape.org/namespaces/inkscape"
   id="svg2"
   version="1.1"
   inkscape:version="0.91 r"
   xml:space="preserve"
   width="716.87946"
   height="569.14313"
   viewBox="0 0 716.87946 569.14313"
   sodipodi:docname="oe-title-logo.svg"><metadata
     id="metadata8"><rdf:RDF><cc:Work
         rdf:about=""><dc:format>image/svg+xml</dc:format><dc:type
           rdf:resource="http://purl.org/dc/dcmitype/StillImage" /><dc:title></dc:title></cc:Work></rdf:RDF></metadata><defs
     id="defs6"><clipPath
       clipPathUnits="userSpaceOnUse"
       id="clipPath16"><path
         d="m 0,0 600,0 0,600.75 -600,0 L 0,0 Z"
         id="path18"
         inkscape:connector-curvature="0" /></clipPath><clipPath
       clipPathUnits="userSpaceOnUse"
       id="clipPath28"><path
         d="m 0,0 600,0 0,600.75 -600,0 L 0,0 Z"
         id="path30"
         inkscape:connector-curvature="0" /></clipPath><clipPath
       clipPathUnits="userSpaceOnUse"
       id="clipPath34"><path
         d="M 0,0 600,0 600,600 0,600 0,0 Z"
         id="path36"
         inkscape:connector-curvature="0" /></clipPath><clipPath
       clipPathUnits="userSpaceOnUse"
       id="clipPath46"><path
         d="m 0,0 600,0 0,600.75 -600,0 L 0,0 Z"
         id="path48"
         inkscape:connector-curvature="0" /></clipPath><clipPath
       clipPathUnits="userSpaceOnUse"
       id="clipPath52"><path
         d="M 0,0 600,0 600,600 0,600 0,0 Z"
         id="path54"
         inkscape:connector-curvature="0" /></clipPath></defs><sodipodi:namedview
     pagecolor="#ffffff"
     bordercolor="#666666"
     borderopacity="1"
     objecttolerance="10"
     gridtolerance="10"
     guidetolerance="10"
     inkscape:pageopacity="0"
     inkscape:pageshadow="2"
     inkscape:window-width="1920"
     inkscape:window-height="1056"
     id="namedview4"
     showgrid="false"
     inkscape:zoom="0.62933333"
     inkscape:cx="456.52964"
     inkscape:cy="192.39312"
     inkscape:window-x="0"
     inkscape:window-y="24"
     inkscape:window-maximized="1"
     inkscape:current-layer="g10"
     fit-margin-top="0"
     fit-margin-left="0"
     fit-margin-right="0"
     fit-margin-bottom="0" /><g
     id="g10"
     inkscape:groupmode="layer"
     inkscape:label="OpenEddi logos, 5-4-15"
     transform="matrix(1.25,0,0,1.25,-23.360596,-132.60662)"><g
       id="g3623"><g
         id="text58"
         style="font-variant:normal;font-weight:normal;font-size:402.49499512px;font-family:'Special Elite';-inkscape-font-specification:SpecialElite-Regular;writing-mode:lr-tb;fill:#000000;fill-opacity:1;fill-rule:nonzero;stroke:none"><path
           id="path3537"
           d="m 397.97711,256.2348 q 0,4.12714 -0.78612,8.05776 -0.78612,3.73408 -1.76878,7.6647 -0.98265,3.73408 -1.76878,7.6647 -0.78612,3.93061 -0.78612,7.86123 0,1.57225 0.19653,3.14449 0.39306,1.37572 0.39306,2.94796 0,3.93062 -1.37571,7.46817 -1.17919,3.53756 -2.94796,6.87858 -1.57225,2.94796 -1.96531,6.09245 -0.19653,3.14449 -0.39306,6.28899 0,3.14449 -0.58959,6.28898 -0.5896,3.14449 -2.35837,5.89592 -0.39306,1.96531 -1.17919,5.89593 -0.58959,3.73408 -1.57224,5.30633 -0.19653,0.39306 -1.17919,0.58959 -0.98265,0.19653 -2.16184,0.39306 -1.17918,0.19653 -2.5549,0.78612 -1.37571,0.5896 -2.35837,1.76878 -0.98265,0.98265 -1.57224,2.75143 -0.58959,1.76878 -1.37572,3.53755 -0.78612,1.76878 -1.9653,3.1445 -0.98266,1.17918 -2.75144,1.17918 -1.76877,0 -3.14449,-0.58959 -1.37571,-0.78612 -2.75143,-1.37572 -1.37571,-0.78612 -2.75143,-1.17918 -1.37571,-0.39306 -3.34102,0.19653 0.58959,0.39306 0.39306,1.96531 -0.19653,1.37571 0,2.94796 0.39306,1.57225 1.76878,2.94796 1.37571,1.37572 4.91327,1.37572 1.76877,0 3.34102,-0.19653 1.76878,-0.19654 3.53755,-0.5896 -1.57224,4.32368 -3.73408,6.87858 -2.16184,2.35837 -4.91327,4.32368 -2.5549,1.76877 -5.50286,3.73408 -2.75143,1.76878 -5.50286,4.71674 -3.34103,3.34102 -6.48552,4.12714 -2.94796,0.78613 -7.07511,1.96531 -4.71673,1.37572 -6.68204,3.34103 -1.96531,1.9653 -4.32368,3.73408 -2.35837,1.76878 -6.48551,2.94796 -3.93062,1.37572 -12.57797,1.37572 -7.86123,0 -15.72246,-0.5896 -7.6647,-0.58959 -15.3294,-1.57224 -3.53756,-0.39306 -5.89593,-1.37572 -2.16183,-0.78612 -4.12714,-1.9653 -1.96531,-0.98266 -3.93062,-2.16184 -1.9653,-1.17919 -4.91327,-2.35837 -1.57224,-0.58959 -3.73408,-1.57225 -2.16184,-0.78612 -4.52021,-1.76878 -2.35837,-0.98265 -4.32367,-1.9653 -1.96531,-1.17919 -3.1445,-2.16184 -1.37571,-1.17919 -1.9653,-2.5549 -0.39306,-1.57225 -0.78613,-3.14449 -0.39306,-1.76878 -0.98265,-3.1445 -0.39306,-1.57224 -1.76878,-2.5549 -2.94796,-0.39306 -5.69939,-0.98265 -2.75143,-0.78612 -5.50286,-1.76878 -0.78612,-2.16183 -1.57225,-4.12714 -0.58959,-2.16184 -1.37571,-4.32368 -2.5549,-2.75143 -4.91327,-4.52021 -2.35837,-1.9653 -4.12715,-3.93061 -1.76877,-1.96531 -3.14449,-4.52021 -1.17918,-2.75143 -1.57224,-7.07511 -0.5896,-5.1098 -2.35837,-9.82653 -1.76878,-4.91327 -3.73409,-9.63001 -1.76878,-4.71674 -3.34102,-9.63001 -1.37572,-4.91327 -1.37572,-10.02307 0,-5.30633 2.16184,-10.80919 -5.69939,-8.05776 -7.07511,-17.49124 -1.37571,-9.63 -1.37571,-19.26001 0,-3.14449 0,-6.09245 0.19653,-3.1445 0.19653,-6.09246 0,-3.34102 -1.57225,-5.1098 -1.37571,-1.96531 -1.37571,-4.71674 0,-4.32367 1.17918,-8.45082 1.37572,-4.12714 1.76878,-8.45082 -2.5549,-0.39306 -3.34102,-1.96531 l 0.39306,-0.78612 q 1.37571,-2.35837 2.16184,-4.32368 0.98265,-1.96531 1.37571,-3.73408 0.39306,-1.76878 0.78613,-3.73409 0.39306,-1.96531 0.98265,-4.5202 1.57224,-8.05777 3.93061,-15.72247 2.5549,-7.6647 4.91327,-15.52593 2.5549,-9.04041 6.28899,-15.91899 3.73408,-6.87857 11.59531,-12.7745 3.34103,-2.75143 6.09246,-5.89592 2.75143,-3.14449 3.93061,-7.46817 0.98265,-0.78612 2.16184,-0.98265 1.17918,-0.19653 2.35837,-0.19653 l 1.57224,0 q 1.37572,0 2.5549,-0.19653 1.37572,-0.39306 2.5549,-1.37572 2.94797,-2.75143 5.1098,-3.93061 2.35837,-1.17919 6.28899,-1.17919 2.75143,0 5.30633,0.58959 2.5549,0.39307 5.30633,0.98266 0.98265,-0.98266 2.75143,-2.5549 1.96531,-1.76878 3.34102,-2.35837 l 0,0.58959 q 0,0.78612 0.19653,1.57225 0.39306,0.58959 1.37572,0.58959 2.5549,0 4.91327,-1.17919 2.35837,-1.17918 4.91327,-1.57224 5.69939,-0.98266 11.39878,-2.94796 5.69939,-2.16184 11.59532,-2.16184 6.28898,0 13.36409,0.78612 7.27164,0.78612 14.15021,2.94796 6.87858,2.16184 12.7745,6.09246 5.89592,3.73408 9.43348,9.82653 1.57224,2.75144 3.14449,4.32368 1.57225,1.37572 3.14449,2.5549 1.57225,0.98266 3.14449,2.16184 1.57225,0.98265 3.34103,2.94796 3.73408,4.32368 5.89592,9.43348 2.35837,4.91327 6.48551,8.84388 5.1098,4.71674 7.46817,11.39879 2.5549,6.68204 2.5549,13.56062 0,2.16184 -0.58959,4.32367 -0.58959,2.16184 -0.58959,4.52021 0,1.96531 0.78612,4.12715 0.98266,2.16184 2.16184,4.52021 1.17919,2.35836 2.16184,4.91326 0.98265,2.5549 1.37571,4.91327 0.5896,5.30633 1.76878,10.41613 1.17919,4.91327 2.35837,10.2196 1.57225,6.68205 2.35837,13.56063 0.78612,6.87857 0.58959,13.75715 z m -32.03451,-1.37572 q 0,-11.00572 -1.96531,-21.81491 -1.76878,-10.80919 -3.53755,-21.61838 -0.78613,-3.93062 -2.5549,-7.46817 -1.57225,-3.53756 -2.75143,-7.27164 -2.35837,-7.07511 -4.52021,-14.15022 -2.16184,-7.0751 -4.32368,-14.15021 -1.37571,-4.32368 -5.50286,-7.46817 -4.12715,-3.34102 -9.63001,-5.50286 -5.50286,-2.35837 -11.98837,-3.73408 -6.28899,-1.57225 -12.18491,-2.35837 -5.89592,-0.98266 -11.00572,-1.17919 -4.91327,-0.39306 -7.46817,-0.39306 l 2.5549,-0.19653 -2.16184,0.19653 q -4.32368,0 -8.64735,-0.39306 -4.12715,-0.39306 -8.45083,-0.39306 -3.53755,0 -7.0751,0.58959 -3.34103,0.39306 -6.09246,2.5549 -6.48551,5.1098 -12.1849,9.63001 -5.6994,4.32367 -9.43348,11.98837 -1.17918,2.5549 -2.5549,3.73409 -1.37572,0.98265 -2.75143,2.16184 -1.17919,0.98265 -2.16184,2.35836 -0.98265,1.37572 -1.37571,4.52021 -0.98266,5.69939 -2.35837,11.39879 -1.17919,5.50286 -1.17919,11.20225 0,6.09245 -1.17918,12.18491 -0.98266,5.89592 -3.34103,11.59531 -0.58959,1.57225 -1.17918,2.94796 -0.39306,1.37572 -0.39306,2.94796 0,2.94797 1.37571,5.1098 1.37572,1.96531 1.37572,3.53756 0,0.78612 -0.58959,0.98265 -0.39306,0 -0.98266,0.39306 -0.39306,0.19653 -0.98265,1.17919 -0.39306,0.98265 -0.39306,3.53755 0,5.69939 0,11.59532 0.19653,5.89592 1.17918,11.59531 0.58959,3.34102 1.96531,6.48552 1.57225,2.94796 1.57225,6.28898 0,2.16184 -0.98266,4.32368 -0.98265,2.16183 -0.98265,4.5202 0,2.75143 1.57224,4.52021 1.57225,1.57225 3.1445,3.73409 1.17918,1.57224 1.9653,4.12714 0.98266,2.35837 1.76878,4.52021 0.98265,2.16184 1.76878,3.73408 0.78612,1.57225 1.76877,1.57225 0.78613,0 1.37572,-0.19653 0.58959,-0.39306 1.37572,-0.39306 3.93061,0 5.89592,3.53755 2.16184,3.34102 2.16184,6.68205 0,2.75143 1.57224,4.71674 1.57225,1.76877 3.73409,3.34102 2.16183,1.57224 4.32367,3.14449 2.35837,1.37572 3.93062,3.14449 2.5549,2.94796 3.93061,3.93062 1.57225,0.98265 2.75143,1.37571 1.17919,0.19653 2.16184,0.39306 1.17919,0.19654 2.94796,1.37572 2.16184,1.57225 4.32368,3.53755 2.35837,1.76878 4.52021,3.34103 6.09245,4.32367 13.56062,5.30633 7.6647,0.78612 14.93634,0.78612 2.94796,0 5.50286,-1.37572 2.5549,-1.37571 5.1098,-2.94796 2.5549,-1.76877 5.1098,-3.14449 2.75143,-1.37571 5.89592,-1.37571 2.5549,0 5.30633,1.17918 4.52021,-6.87858 8.64736,-11.00572 4.12714,-4.12715 7.46816,-8.05776 3.34103,-3.93062 5.6994,-9.04042 2.35837,-5.1098 3.34102,-13.95368 0.39306,-3.73409 1.96531,-6.87858 1.76877,-3.34102 2.16184,-6.87858 0.98265,-7.86123 0.98265,-15.72246 0.19653,-7.86123 1.37571,-15.72246 0.39307,-3.14449 0.5896,-6.28898 0.19653,-3.14449 0.19653,-6.48552 z"
           inkscape:connector-curvature="0" /></g><g
         id="text64"
         style="font-variant:normal;font-weight:normal;font-size:251.55749512px;font-family:'Special Elite';-inkscape-font-specification:SpecialElite-Regular;writing-mode:lr-tb;fill:#1b55aa;fill-opacity:1;fill-rule:nonzero;stroke:none"><path
           id="path3540"
           d="m 345.77441,287.82836 q 0,3.31643 -1.10548,5.65022 -0.98264,2.33378 -2.70228,4.17625 -1.5968,1.84246 -3.80775,3.43926 -2.08812,1.5968 -4.29908,3.43926 -1.71963,1.47397 -3.07077,2.21096 -1.35114,0.73698 -2.70228,1.2283 -1.22831,0.49133 -2.70227,0.98265 -1.35114,0.49132 -3.19361,1.35114 -2.45661,1.22831 -4.17624,2.33378 -1.5968,0.98265 -3.31644,1.84247 -1.5968,0.85981 -3.56209,1.35114 -1.96529,0.61415 -4.91323,0.98264 -4.91323,0.61416 -9.9493,1.47397 -4.91323,0.85982 -9.82646,0.85982 -0.98265,0 -2.08812,-0.49133 -0.98265,-0.36849 -2.33379,-0.85981 -1.35114,-0.36849 -3.07077,-0.85982 -1.5968,-0.36849 -3.93059,-0.36849 -2.45661,0 -3.93058,-0.73698 -1.47397,-0.73699 -2.70228,-1.71964 -1.10548,-0.98264 -2.33379,-2.08812 -1.2283,-1.22831 -3.1936,-2.08812 -7.36984,-3.31644 -12.52874,-7.98401 -5.15889,-4.66757 -8.84382,-10.44061 -3.68492,-5.77305 -6.14154,-12.52875 -2.45661,-6.75569 -4.17624,-14.12554 -1.35114,-5.15889 -1.35114,-10.31779 0,-6.75569 3.1936,-12.52874 -1.22831,-3.43926 -1.22831,-6.63286 0,-2.33379 1.35114,-6.87853 1.35114,-4.66757 3.43926,-9.33514 2.21096,-4.66757 4.66757,-8.3525 2.57945,-3.80775 4.7904,-4.66757 1.71963,-0.61415 2.33379,-0.98264 0.73698,-0.49133 0.73698,-2.45662 0,-1.47397 1.10548,-2.45662 1.22831,-0.98264 2.82511,-1.5968 1.71963,-0.61415 3.31643,-1.10547 1.71963,-0.49133 2.82511,-0.98265 4.54474,-2.21095 8.59816,-3.68492 4.17624,-1.5968 8.22966,-2.57945 4.17625,-1.10548 8.59816,-1.5968 4.42191,-0.49132 9.45797,-0.49132 2.70228,0 5.28172,0.73698 2.57945,0.73699 4.91324,1.96529 2.45661,1.10548 4.7904,2.57945 2.33378,1.35114 4.54474,2.70228 l -0.12283,0 q 1.84246,0.24566 3.43926,1.10548 1.71963,0.73698 3.56209,0.98264 1.71963,2.08813 4.42191,4.05342 2.82511,1.84246 5.40456,3.93058 2.70228,2.08813 4.54474,4.54474 1.96529,2.33379 1.96529,5.40456 0,0.49132 -0.12283,0.98265 0,0.49132 -0.12283,1.10547 l 0.49132,-0.61415 q 0.49133,0.36849 0.85982,1.22831 0.49132,0.85981 0.85981,1.96529 0.3685,0.98265 0.61416,2.08812 0.24566,0.98265 0.36849,1.5968 0.98265,1.59681 2.57945,2.57945 1.71963,0.98265 2.70227,2.70228 -1.2283,1.22831 -1.2283,3.1936 0,2.08812 0.85981,4.17625 0.85982,1.96529 0.85982,4.05341 0,2.45662 -0.24566,4.79041 -0.24567,2.21095 -0.24567,4.66757 0,1.84246 -1.47397,2.82511 -1.35113,0.98264 -3.07077,1.71963 -1.5968,0.73698 -2.94793,1.47397 -1.35114,0.73698 -1.35114,2.08812 0,0.98265 -1.22831,0.98265 -1.10548,-0.12283 -1.84246,-0.12283 -5.40456,0 -10.80912,-1.35114 -5.28172,-1.35114 -10.56344,-1.35114 -5.77305,0 -11.42327,0.85981 -5.65022,0.73699 -11.42327,0.73699 -4.29907,0 -8.59815,-0.24566 -4.17625,-0.24566 -8.47533,-0.24566 -1.10547,0 -4.17624,0.49132 -3.07078,0.36849 -6.51004,1.10548 -3.31643,0.61415 -6.3872,1.5968 -3.07077,0.85981 -4.29908,1.71963 -0.12283,0.61415 -0.12283,1.71963 0,5.77305 3.31643,11.91459 3.43927,6.14154 8.96665,11.1776 5.52739,5.03606 12.40591,8.3525 6.87853,3.31643 13.87988,3.31643 4.05342,0 7.98401,0.36849 4.05341,0.24566 7.86117,1.71963 3.31643,-1.5968 6.01871,-3.68492 2.82511,-2.08813 5.40455,-4.42191 2.57945,-2.33379 5.03607,-4.7904 2.45661,-2.45662 5.03606,-4.91324 0.49132,-0.49132 2.33379,-0.85981 1.96529,-0.49132 4.17624,-0.73699 2.21096,-0.36849 4.17625,-0.49132 2.08812,-0.24566 2.82511,-0.24566 2.82511,0 5.28172,0.85981 0.73699,2.82511 0.73699,5.52739 z m -18.42462,-49.86931 q 0,-1.84246 -0.61416,-3.56209 -0.61415,-1.71963 -0.98264,-3.56209 -0.61416,-3.43927 -0.61416,-6.63287 0,-3.31643 -0.98264,-6.63286 l -0.12283,0 q 0,0.73698 -0.49133,1.47397 -0.49132,0.61415 -1.35114,0.61415 -1.47397,0 -2.8251,-0.73698 -1.35114,-0.73699 -2.33379,-1.84246 -4.66757,-2.08813 -8.47533,-3.93059 -3.68492,-1.84246 -7.49267,-3.1936 -3.68493,-1.47397 -7.98401,-2.21096 -4.17625,-0.85981 -9.70363,-0.85981 -0.49132,0 -0.98265,0.12283 -0.36849,0 -0.73698,0.36849 l 0.61415,1.35114 -0.98265,0.24566 q -3.31643,0.61416 -5.52738,1.22831 -2.08813,0.49132 -3.80776,1.47397 -1.71963,0.98265 -3.43926,2.45662 -1.5968,1.35114 -4.17625,3.56209 -1.2283,1.10548 -2.70227,1.71963 -1.35114,0.49132 -2.82511,0.98265 -1.35114,0.36849 -2.70228,0.85981 -1.22831,0.49133 -2.08812,1.5968 -0.85982,3.07077 -2.57945,6.01871 -1.5968,2.82511 -1.5968,6.01871 0,1.84246 1.47397,3.31643 1.5968,1.35114 3.93058,2.33379 2.45662,0.98265 5.28173,1.71963 2.94794,0.73699 5.77305,1.10548 2.8251,0.36849 5.15889,0.61415 2.45662,0.12283 3.80776,0.12283 4.66757,0 9.21231,-0.85981 4.54474,-0.98265 9.21231,-0.98265 4.7904,0 9.5808,0.49132 4.7904,0.3685 9.5808,0.3685 1.22831,0 3.68493,-0.12283 2.45661,-0.12283 4.7904,-0.61416 2.45661,-0.61415 4.17625,-1.5968 1.84246,-1.10548 1.84246,-2.82511 z"
           inkscape:connector-curvature="0" /></g><g
         id="text70"
         style="font-variant:normal;font-weight:normal;font-size:120.75px;font-family:'Special Elite';-inkscape-font-specification:SpecialElite-Regular;writing-mode:lr-tb;fill:#000000;fill-opacity:1;fill-rule:nonzero;stroke:none"><path
           id="path3543"
           d="m 82.718994,495.06995 q 0,1.23816 -0.23584,2.41735 -0.23584,1.12024 -0.530639,2.29944 -0.2948,1.12024 -0.53064,2.29944 -0.23584,1.1792 -0.23584,2.3584 0,0.47168 0.05896,0.94336 0.11792,0.41272 0.11792,0.8844 0,1.1792 -0.41272,2.24048 -0.353759,1.06128 -0.884399,2.0636 -0.47168,0.8844 -0.5896,1.82775 -0.05896,0.94336 -0.11792,1.88672 0,0.94336 -0.17688,1.88672 -0.176879,0.94336 -0.707519,1.7688 -0.11792,0.5896 -0.35376,1.7688 -0.17688,1.12024 -0.47168,1.59192 -0.05896,0.11792 -0.353759,0.17688 -0.2948,0.059 -0.64856,0.11792 -0.35376,0.059 -0.766479,0.23584 -0.41272,0.17688 -0.70752,0.53064 -0.2948,0.2948 -0.47168,0.82544 -0.176879,0.53064 -0.412719,1.06128 -0.23584,0.53064 -0.5896,0.94336 -0.2948,0.35376 -0.825439,0.35376 -0.53064,0 -0.94336,-0.17688 -0.412719,-0.23584 -0.825439,-0.41272 -0.41272,-0.23584 -0.82544,-0.35376 -0.412719,-0.11792 -1.002319,0.059 0.17688,0.11792 0.11792,0.5896 -0.05896,0.41272 0,0.8844 0.11792,0.47168 0.53064,0.8844 0.412719,0.41271 1.473999,0.41271 0.530639,0 1.002319,-0.059 0.53064,-0.059 1.061279,-0.17688 -0.471679,1.29712 -1.120239,2.0636 -0.64856,0.70752 -1.473999,1.29712 -0.76648,0.53064 -1.650879,1.12024 -0.825439,0.53064 -1.650879,1.41504 -1.002319,1.00232 -1.945679,1.23816 -0.884399,0.23584 -2.122558,0.5896 -1.415039,0.41272 -2.004639,1.00232 -0.589599,0.5896 -1.297119,1.12024 -0.707519,0.53064 -1.945679,0.8844 -1.179199,0.41272 -3.773437,0.41272 -2.358399,0 -4.716797,-0.17688 -2.299439,-0.17688 -4.598877,-0.47168 -1.061279,-0.11792 -1.768799,-0.41272 -0.648559,-0.23584 -1.238159,-0.5896 -0.5896,-0.2948 -1.179199,-0.64856 -0.5896,-0.35376 -1.473999,-0.70752 -0.47168,-0.17688 -1.120239,-0.47168 -0.64856,-0.23584 -1.35608,-0.53064 -0.707519,-0.2948 -1.297119,-0.5896 -0.589599,-0.35376 -0.943359,-0.64856 -0.41272,-0.35376 -0.5896,-0.76648 -0.11792,-0.47168 -0.23584,-0.94336 -0.117919,-0.53064 -0.294799,-0.94336 -0.11792,-0.47168 -0.53064,-0.76648 -0.884399,-0.11792 -1.709839,-0.2948 -0.825439,-0.23584 -1.650879,-0.53064 -0.23584,-0.64856 -0.471679,-1.23816 -0.17688,-0.64855 -0.41272,-1.29711 -0.76648,-0.82544 -1.473999,-1.35608 -0.70752,-0.5896 -1.238159,-1.1792 -0.53064,-0.5896 -0.94336,-1.35608 -0.35376,-0.82544 -0.471679,-2.12256 -0.17688,-1.53296 -0.70752,-2.948 -0.53064,-1.474 -1.120239,-2.88904 -0.53064,-1.41504 -1.00232,-2.88903 -0.412719,-1.474 -0.412719,-3.00696 0,-1.59192 0.648559,-3.2428 -1.709839,-2.41736 -2.122558,-5.24744 -0.41272,-2.88904 -0.41272,-5.77807 0,-0.94336 0,-1.82776 0.05896,-0.94336 0.05896,-1.82776 0,-1.00232 -0.47168,-1.53296 -0.41272,-0.5896 -0.41272,-1.41504 0,-1.29712 0.35376,-2.53528 0.41272,-1.23816 0.53064,-2.53528 -0.76648,-0.11792 -1.002319,-0.5896 l 0.117919,-0.23583 q 0.41272,-0.70752 0.64856,-1.29712 0.2948,-0.5896 0.41272,-1.12024 0.11792,-0.53064 0.23584,-1.12024 0.11792,-0.5896 0.294799,-1.35608 0.47168,-2.41736 1.1792,-4.7168 0.766479,-2.29944 1.473999,-4.65784 0.766479,-2.71215 1.886718,-4.77575 1.12024,-2.0636 3.478638,-3.8324 1.002319,-0.82544 1.827759,-1.7688 0.825439,-0.94336 1.179199,-2.24048 0.2948,-0.23584 0.64856,-0.2948 0.353759,-0.059 0.707519,-0.059 l 0.47168,0 q 0.41272,0 0.766479,-0.059 0.41272,-0.11792 0.76648,-0.41272 0.884399,-0.82544 1.532959,-1.1792 0.707519,-0.35376 1.886719,-0.35376 0.825439,0 1.591919,0.17688 0.766479,0.11792 1.591919,0.2948 0.294799,-0.2948 0.825439,-0.76648 0.5896,-0.53064 1.002319,-0.70751 l 0,0.17687 q 0,0.23584 0.05896,0.47168 0.11792,0.17688 0.41272,0.17688 0.766479,0 1.473999,-0.35376 0.70752,-0.35375 1.473999,-0.47167 1.709839,-0.2948 3.419678,-0.8844 1.709839,-0.64856 3.478637,-0.64856 1.886719,0 4.009278,0.23584 2.181518,0.23584 4.245117,0.8844 2.063599,0.64855 3.832397,1.82775 1.768799,1.12024 2.830079,2.948 0.471679,0.82544 0.943359,1.29712 0.47168,0.41272 0.943359,0.76648 0.47168,0.2948 0.94336,0.64856 0.471679,0.2948 1.002319,0.8844 1.120239,1.29712 1.768799,2.83008 0.707519,1.474 1.945679,2.6532 1.532959,1.41504 2.240478,3.41967 0.76648,2.00464 0.76648,4.06824 0,0.64856 -0.17688,1.29712 -0.17688,0.64856 -0.17688,1.35608 0,0.5896 0.23584,1.23816 0.294799,0.64856 0.648559,1.35608 0.35376,0.70752 0.64856,1.474 0.2948,0.76648 0.41272,1.474 0.176879,1.59191 0.530639,3.12487 0.35376,1.474 0.70752,3.06592 0.471679,2.00464 0.707519,4.06824 0.23584,2.0636 0.17688,4.1272 z m -9.610473,-0.41272 q 0,-3.30176 -0.5896,-6.54456 -0.53064,-3.2428 -1.061279,-6.48559 -0.23584,-1.1792 -0.76648,-2.24048 -0.47168,-1.06128 -0.825439,-2.18152 -0.70752,-2.12256 -1.356079,-4.24512 -0.64856,-2.12256 -1.29712,-4.24512 -0.412719,-1.29712 -1.650878,-2.24047 -1.23816,-1.00232 -2.889039,-1.65088 -1.650878,-0.70752 -3.596557,-1.12024 -1.886719,-0.47168 -3.655518,-0.70752 -1.768799,-0.2948 -3.301758,-0.35376 -1.473999,-0.11792 -2.240478,-0.11792 l 0.766479,-0.059 -0.648559,0.059 q -1.297119,0 -2.594238,-0.11792 -1.23816,-0.11792 -2.535279,-0.11792 -1.061279,0 -2.122558,0.17688 -1.00232,0.11792 -1.827759,0.76648 -1.945679,1.53296 -3.655518,2.88904 -1.709839,1.29711 -2.830078,3.59655 -0.35376,0.76648 -0.766479,1.12024 -0.41272,0.2948 -0.82544,0.64856 -0.35376,0.2948 -0.648559,0.70752 -0.2948,0.41272 -0.41272,1.35608 -0.2948,1.70984 -0.70752,3.41968 -0.353759,1.65088 -0.353759,3.36072 0,1.82775 -0.35376,3.65551 -0.2948,1.7688 -1.00232,3.47864 -0.176879,0.47168 -0.353759,0.8844 -0.11792,0.41272 -0.11792,0.8844 0,0.8844 0.41272,1.53296 0.412719,0.5896 0.412719,1.06128 0,0.23584 -0.17688,0.2948 -0.11792,0 -0.294799,0.11792 -0.11792,0.059 -0.2948,0.35376 -0.11792,0.2948 -0.11792,1.06128 0,1.70984 0,3.47863 0.05896,1.7688 0.35376,3.47864 0.176879,1.00232 0.589599,1.94568 0.47168,0.8844 0.47168,1.88672 0,0.64856 -0.2948,1.29712 -0.2948,0.64856 -0.2948,1.35608 0,0.82544 0.47168,1.35608 0.47168,0.47168 0.943359,1.12024 0.35376,0.47168 0.5896,1.23816 0.2948,0.70752 0.53064,1.35607 0.294799,0.64856 0.530639,1.12024 0.23584,0.47168 0.53064,0.47168 0.23584,0 0.41272,-0.059 0.17688,-0.11792 0.412719,-0.11792 1.1792,0 1.768799,1.06128 0.64856,1.00232 0.64856,2.00464 0,0.82544 0.471679,1.41504 0.47168,0.53064 1.12024,1.00232 0.648559,0.47168 1.297119,0.94336 0.707519,0.41272 1.179199,0.94336 0.76648,0.8844 1.179199,1.1792 0.47168,0.2948 0.82544,0.41272 0.35376,0.059 0.648559,0.11792 0.35376,0.059 0.8844,0.41272 0.648559,0.47168 1.297119,1.06128 0.707519,0.53064 1.356079,1.00232 1.827759,1.29712 4.068237,1.59192 2.299439,0.23584 4.480957,0.23584 0.8844,0 1.650879,-0.41272 0.76648,-0.41272 1.532959,-0.8844 0.76648,-0.53064 1.532959,-0.94336 0.82544,-0.41272 1.768799,-0.41272 0.766479,0 1.591919,0.35376 1.356079,-2.0636 2.594238,-3.30176 1.238159,-1.23816 2.240479,-2.41736 1.002319,-1.1792 1.709839,-2.71216 0.707519,-1.53296 1.002319,-4.18615 0.11792,-1.12024 0.5896,-2.0636 0.530639,-1.00232 0.648559,-2.0636 0.2948,-2.3584 0.2948,-4.7168 0.05896,-2.3584 0.41272,-4.7168 0.11792,-0.94336 0.17688,-1.88671 0.05896,-0.94336 0.05896,-1.94568 z"
           inkscape:connector-curvature="0" /></g><g
         id="text74"
         style="font-variant:normal;font-weight:normal;font-size:120.75px;font-family:'Special Elite';-inkscape-font-specification:SpecialElite-Regular;writing-mode:lr-tb;fill:#000000;fill-opacity:1;fill-rule:nonzero;stroke:none"><path
           id="path3546"
           d="m 153.94265,506.0365 q 0,2.53528 -0.53064,4.95264 -0.53064,2.41735 -0.8844,4.89367 -0.11792,0.82544 -0.17688,1.53296 0,0.64856 -0.11792,1.29712 -0.11792,0.5896 -0.41272,1.23816 -0.2948,0.5896 -0.8844,1.23816 -0.76648,0.82544 -1.06128,1.7688 -0.2948,0.8844 -0.5896,1.88672 -0.35376,1.00232 -0.82544,1.53296 -0.41272,0.47168 -0.94336,0.82543 -0.47168,0.35376 -1.06128,0.70752 -0.53063,0.2948 -1.12023,0.94336 -0.35376,0.41272 -0.47168,0.82544 -0.059,0.41272 -0.11792,0.82544 -0.059,0.35376 -0.2948,0.70752 -0.17688,0.35376 -0.76648,0.5896 -0.94336,0.41272 -1.35608,0.94336 -0.41272,0.47168 -1.06128,1.12024 -0.64856,0.64856 -1.70984,1.23816 -1.00232,0.64856 -2.18152,1.12024 -1.12024,0.47168 -2.29944,0.76648 -1.1792,0.2948 -2.0636,0.2948 -1.12024,0 -2.24047,-0.23584 -1.06128,-0.23584 -2.18152,-0.23584 -0.64856,0 -1.00232,0.17688 -0.2948,0.23584 -0.53064,0.47168 -0.23584,0.23584 -0.53064,0.41272 -0.23584,0.23584 -0.76648,0.23584 -1.00232,0 -2.948,-0.82544 -1.94568,-0.76648 -4.1272,-1.7688 -2.12256,-0.94336 -4.12719,-1.70984 -2.00464,-0.82544 -3.06592,-0.82544 -0.94336,0 -1.53296,0.70752 -0.53064,0.64856 -0.8844,1.65088 -0.35376,1.06128 -0.53064,2.24048 -0.11792,1.23816 -0.17688,2.29944 0,1.06128 0,1.7688 0.059,0.70751 0.059,0.70751 0,0.5896 -0.23584,0.76648 -0.17688,0.17688 -0.53064,0.17688 -0.23584,0 -0.47168,-0.059 -0.23584,0 -0.53064,-0.059 0,0.70752 0.23584,1.53296 0.2948,0.82544 0.64856,1.70984 0.41272,0.94336 0.76648,1.82776 0.35376,0.8844 0.53064,1.65088 0.41272,1.88672 0.82544,2.71216 0.47168,0.82544 1.1792,1.12024 0.70752,0.2948 1.7688,0.23584 1.06128,0 2.71216,0.17688 0.76647,0.11792 1.65087,0.2948 0.8844,0.23584 1.59192,0.64856 0.70752,0.47168 1.1792,1.12024 0.47168,0.64856 0.47168,1.59191 0,1.94568 -1.1792,2.77112 -1.12024,0.82544 -2.88904,0.82544 -2.41735,0 -4.83471,-0.35376 -2.3584,-0.35376 -4.83472,-0.35376 -2.59424,0 -5.18848,0.2948 -2.535274,0.2948 -5.070552,0.2948 -0.648559,0 -1.827759,-0.23584 -1.120239,-0.23584 -2.299438,-0.70752 -1.120239,-0.41272 -2.004639,-1.06128 -0.825439,-0.5896 -0.825439,-1.35608 0,-0.53064 0.589599,-1.06127 0.64856,-0.47168 1.415039,-0.82544 0.82544,-0.35376 1.650879,-0.5896 0.82544,-0.17688 1.297119,-0.17688 1.06128,0 1.945679,-0.35376 0.943359,-0.2948 1.827759,-0.64856 0.884399,-0.35376 1.768799,-0.70752 0.884404,-0.2948 1.886714,-0.2948 0.53064,-2.24048 0.64856,-4.48096 0.17688,-2.24048 0.17688,-4.48096 0,-1.59192 -0.059,-3.18383 0,-1.59192 0,-3.18384 0,-3.12488 0.41272,-6.1908 0.47168,-3.06592 0.47168,-6.24975 0,-1.94568 -0.17688,-3.89136 -0.11792,-1.94568 -0.23584,-3.89136 -0.17688,-0.23584 -0.41272,-1.53296 -0.23584,-1.35608 -0.47168,-2.948 -0.17688,-1.59191 -0.2948,-3.00695 -0.11792,-1.474 -0.11792,-1.94568 0,-0.64856 0.17688,-1.12024 0.23584,-0.53064 0.47168,-0.8844 0.23584,-0.41272 0.41272,-0.70752 0.23584,-0.2948 0.23584,-0.53064 0,-0.059 -0.17688,-0.41272 -0.17688,-0.35376 -0.41272,-0.8844 -0.17688,-0.53064 -0.35376,-1.1792 -0.17688,-0.64856 -0.17688,-1.29712 0,-1.88672 0.41272,-3.77344 0.47168,-1.88671 0.47168,-3.77343 0,-2.53528 -1.82775,-4.422 -0.884404,-0.8844 -1.415044,-1.35608 -0.53064,-0.47168 -1.061279,-0.64856 -0.53064,-0.23584 -1.23816,-0.2948 -0.707519,-0.11792 -1.945678,-0.2948 -0.64856,-0.059 -1.827759,-0.35376 -1.120239,-0.35376 -2.240479,-0.82544 -1.120239,-0.47168 -2.004638,-1.12024 -0.82544,-0.64856 -0.82544,-1.41504 0,-1.00232 0.94336,-1.70983 0.943359,-0.76648 2.181518,-1.1792 1.297119,-0.47168 2.594239,-0.64856 1.297119,-0.23584 2.063598,-0.23584 0.82544,0 1.650879,0.17688 0.82544,0.11792 1.415039,0.70752 0.64856,-0.64856 1.591924,-0.82544 0.94335,-0.23584 1.82775,-0.23584 2.53528,0 3.89136,0.76648 1.35608,0.76648 2.12256,1.70984 0.82544,0.88439 1.29712,1.65087 0.53064,0.76648 1.29712,0.76648 0.47168,0 0.8844,-0.17688 0.47168,-0.17688 0.94336,-0.41272 1.23816,-0.5896 3.71447,-1.41504 2.47632,-0.88439 5.24744,-1.65087 2.77112,-0.82544 5.3064,-1.35608 2.53528,-0.53064 3.83239,-0.53064 0.64856,0 1.82776,0.35376 1.23816,0.2948 2.71216,0.82544 1.474,0.47168 3.06592,1.1792 1.59192,0.64856 2.948,1.35607 1.35608,0.70752 2.3584,1.41504 1.00232,0.64856 1.35608,1.1792 0.64856,1.06128 1.35607,1.82776 0.76648,0.76648 2.00464,1.1792 0.35376,0.47168 0.41272,1.00232 0.11792,0.53064 0.11792,1.12024 l 0,1.12024 q 0,1.1792 0.41272,1.82776 0.41272,0.64856 0.8844,1.12024 0.47168,0.41272 0.8844,0.82544 0.41272,0.35376 0.41272,1.06128 0,0.41272 -0.23584,0.76648 -0.23584,0.2948 -0.23584,0.64855 0,0.8844 0.41272,1.82776 0.41272,0.8844 0.8844,2.00464 0.47168,1.06128 0.8844,2.29944 0.41272,1.23816 0.41272,2.71216 z m -27.00366,-25.11694 q 0,-0.2948 -0.2948,-0.5896 -0.2948,-0.2948 -0.5896,-0.2948 -0.5896,0 -0.76648,0.64856 -0.11792,0.5896 -0.11792,1.06128 0,-0.11792 0.059,-0.11792 0.11792,0 0.17688,0.059 l -0.23584,0.11792 q 0.41272,0 1.06128,-0.11792 0.70752,-0.17688 0.70752,-0.76648 z m 20.04638,26.9447 q 0,-1.7688 -0.47168,-3.41968 -0.47167,-1.70984 -1.17919,-3.2428 -0.70752,-1.59192 -1.59192,-3.06592 -0.8844,-1.47399 -1.7688,-2.88903 -0.23584,-0.35376 -0.2948,-0.76648 -0.059,-0.47168 -0.059,-0.8844 0,-0.47168 -0.11792,-0.8844 -0.059,-0.47168 -0.35376,-0.82544 -0.47168,-0.53064 -0.8844,-0.5896 -0.41272,-0.11792 -0.82544,-0.17688 -0.35376,-0.059 -0.82544,-0.2948 -0.41272,-0.23584 -0.82544,-1.06128 -0.2948,-0.53064 -1.29712,-1.1792 -0.94336,-0.64856 -2.12256,-1.23816 -1.12024,-0.5896 -2.24048,-0.94336 -1.06128,-0.41272 -1.65087,-0.41272 -1.1792,0 -2.3584,0.53064 -1.12024,0.47168 -2.29944,0.47168 -0.82544,0 -1.53296,-0.2948 -0.64856,-0.2948 -1.29712,-0.5896 -0.5896,-0.35376 -1.23816,-0.64856 -0.64856,-0.2948 -1.35608,-0.2948 l -0.2948,0 q 0.11792,0.5896 0.11792,0.94336 0,0.53064 -0.23584,0.8844 -0.23584,0.2948 -0.64856,0.53064 -0.35376,0.23584 -0.82544,0.47168 -0.41272,0.17688 -0.76648,0.41272 -0.53064,0.64856 -0.5896,1.29712 0,0.64856 -0.5896,0.64856 -0.41272,0 -0.64855,-0.11792 0,0.41272 -0.23584,0.5896 -0.23584,0.17688 -0.53064,0.2948 -0.2948,0.11792 -0.5896,0.2948 -0.2948,0.11792 -0.35376,0.47168 -0.76648,0.059 -1.41504,0.94336 -0.64856,0.82544 -1.12024,2.12256 -0.47168,1.29712 -0.82544,2.88903 -0.35376,1.59192 -0.5896,3.12488 -0.23584,1.474 -0.35376,2.77112 -0.11792,1.23816 -0.11792,1.88672 0,2.12256 0.23584,4.24512 0.2948,2.0636 0.2948,4.18615 0,1.59192 -0.11792,3.18384 -0.059,1.59192 -0.17688,3.2428 1.474,1.59192 2.83008,3.18384 1.35608,1.59192 2.83008,2.88904 1.53295,1.23815 3.36071,2.12255 1.82776,0.82544 4.24512,0.8844 0.94336,0 1.88672,0.23584 0.94336,0.23584 1.88672,0.47168 0.94336,0.23584 1.82776,0.47168 0.94336,0.17688 1.88672,0.17688 0.88439,0 1.88671,-0.35376 1.00232,-0.41272 1.94568,-1.00232 1.00232,-0.5896 1.88672,-1.23816 0.8844,-0.70752 1.474,-1.35607 0.47168,-0.53064 1.12024,-0.76648 0.70752,-0.23584 1.1792,-0.70752 0.35376,-0.35376 0.47168,-0.76648 0.11792,-0.41272 0.17688,-0.82544 0.11792,-0.41272 0.2948,-0.76648 0.17688,-0.41272 0.70752,-0.70752 1.12024,-0.5896 1.41504,-0.82544 0.2948,-0.2948 0.2948,-1.00232 l 0,-1.12024 q 0,-0.5896 0.2948,-0.82544 0.2948,-0.2948 0.64856,-0.53064 0.35376,-0.2948 0.64856,-0.70752 0.2948,-0.47168 0.2948,-1.53296 0,-0.76648 -0.11792,-1.474 -0.11792,-0.76648 -0.11792,-1.53296 0,-0.76648 0.23584,-1.41503 0.2948,-0.64856 0.5896,-1.23816 0.35375,-0.5896 0.58959,-1.12024 0.2948,-0.5896 0.2948,-1.23816 z"
           inkscape:connector-curvature="0" /></g><g
         id="text78"
         style="font-variant:normal;font-weight:normal;font-size:120.75px;font-family:'Special Elite';-inkscape-font-specification:SpecialElite-Regular;writing-mode:lr-tb;fill:#000000;fill-opacity:1;fill-rule:nonzero;stroke:none"><path
           id="path3549"
           d="m 219.38821,522.42737 q 0,1.59192 -0.53064,2.71216 -0.47168,1.12024 -1.29711,2.00464 -0.76648,0.88439 -1.82776,1.65087 -1.00232,0.76648 -2.0636,1.65088 -0.82544,0.70752 -1.474,1.06128 -0.64856,0.35376 -1.29712,0.5896 -0.5896,0.23584 -1.29712,0.47168 -0.64856,0.23584 -1.53296,0.64856 -1.1792,0.5896 -2.00464,1.12024 -0.76648,0.47168 -1.59192,0.8844 -0.76648,0.41272 -1.70983,0.64856 -0.94336,0.2948 -2.3584,0.47168 -2.3584,0.2948 -4.77576,0.70752 -2.3584,0.41272 -4.7168,0.41272 -0.47168,0 -1.00232,-0.23584 -0.47168,-0.17688 -1.12024,-0.41272 -0.64856,-0.17688 -1.47399,-0.41272 -0.76648,-0.17688 -1.88672,-0.17688 -1.1792,0 -1.88672,-0.35376 -0.70752,-0.35376 -1.29712,-0.82544 -0.53064,-0.47168 -1.12024,-1.00232 -0.5896,-0.5896 -1.53296,-1.00232 -3.5376,-1.59192 -6.01392,-3.8324 -2.47631,-2.24047 -4.24511,-5.01159 -1.7688,-2.77112 -2.948,-6.01392 -1.1792,-3.2428 -2.00464,-6.78039 -0.64856,-2.47632 -0.64856,-4.95264 0,-3.2428 1.53296,-6.01392 -0.5896,-1.65088 -0.5896,-3.18384 0,-1.12023 0.64856,-3.30175 0.64856,-2.24048 1.65088,-4.48096 1.06128,-2.24048 2.24048,-4.00928 1.23816,-1.82776 2.29944,-2.24048 0.82544,-0.2948 1.12024,-0.47168 0.35375,-0.23584 0.35375,-1.17919 0,-0.70752 0.53064,-1.1792 0.5896,-0.47168 1.35608,-0.76648 0.82544,-0.2948 1.59192,-0.53064 0.82544,-0.23584 1.35608,-0.47168 2.18152,-1.06128 4.1272,-1.7688 2.00464,-0.76648 3.95032,-1.23816 2.00463,-0.53064 4.12719,-0.76648 2.12256,-0.23584 4.53992,-0.23584 1.29712,0 2.53528,0.35376 1.23816,0.35376 2.3584,0.94336 1.1792,0.53064 2.29944,1.23816 1.12024,0.64856 2.18151,1.29712 l -0.059,0 q 0.8844,0.11792 1.65088,0.53064 0.82544,0.35376 1.70984,0.47168 0.82544,1.00232 2.12256,1.94568 1.35608,0.88439 2.59424,1.88671 1.29712,1.00232 2.18152,2.18152 0.94336,1.12024 0.94336,2.59424 0,0.23584 -0.059,0.47168 0,0.23584 -0.059,0.53064 l 0.23584,-0.2948 q 0.23584,0.17688 0.41272,0.5896 0.23584,0.41272 0.41272,0.94336 0.17688,0.47168 0.2948,1.00232 0.11792,0.47168 0.17688,0.76648 0.47168,0.76648 1.23816,1.23816 0.82543,0.47168 1.29711,1.29712 -0.5896,0.5896 -0.5896,1.53296 0,1.00231 0.41272,2.00463 0.41272,0.94336 0.41272,1.94568 0,1.1792 -0.11792,2.29944 -0.11792,1.06128 -0.11792,2.24048 0,0.8844 -0.70752,1.35608 -0.64855,0.47168 -1.47399,0.82544 -0.76648,0.35376 -1.41504,0.70752 -0.64856,0.35376 -0.64856,1.00232 0,0.47168 -0.5896,0.47168 -0.53064,-0.059 -0.8844,-0.059 -2.59424,0 -5.18848,-0.64856 -2.53528,-0.64856 -5.07056,-0.64856 -2.77111,0 -5.48327,0.41272 -2.71216,0.35376 -5.48328,0.35376 -2.0636,0 -4.1272,-0.11792 -2.00463,-0.11792 -4.06823,-0.11792 -0.53064,0 -2.00464,0.23584 -1.474,0.17688 -3.12488,0.53064 -1.59192,0.2948 -3.06592,0.76648 -1.474,0.41272 -2.0636,0.82544 -0.059,0.2948 -0.059,0.82544 0,2.77111 1.59192,5.71911 1.65088,2.948 4.30408,5.36536 2.6532,2.41736 5.95496,4.00928 3.30175,1.59191 6.66247,1.59191 1.94568,0 3.8324,0.17688 1.94568,0.11792 3.77344,0.82544 1.59192,-0.76648 2.88904,-1.7688 1.35607,-1.00231 2.59423,-2.12255 1.23816,-1.12024 2.41736,-2.29944 1.1792,-1.1792 2.41736,-2.3584 0.23584,-0.23584 1.12024,-0.41272 0.94336,-0.23584 2.00464,-0.35376 1.06128,-0.17688 2.00464,-0.23584 1.00232,-0.11792 1.35608,-0.11792 1.35608,0 2.53527,0.41272 0.35376,1.35608 0.35376,2.6532 z m -8.84399,-23.93775 q 0,-0.8844 -0.2948,-1.70983 -0.2948,-0.82544 -0.47168,-1.70984 -0.2948,-1.65088 -0.2948,-3.18384 0,-1.59192 -0.47168,-3.18384 l -0.059,0 q 0,0.35376 -0.23584,0.70752 -0.23584,0.2948 -0.64856,0.2948 -0.70752,0 -1.35608,-0.35376 -0.64856,-0.35376 -1.12024,-0.8844 -2.24048,-1.00232 -4.06823,-1.88672 -1.7688,-0.8844 -3.59656,-1.53296 -1.7688,-0.70752 -3.8324,-1.06128 -2.00464,-0.41272 -4.65784,-0.41272 -0.23584,0 -0.47168,0.059 -0.17688,0 -0.35376,0.17688 l 0.2948,0.64856 -0.47168,0.11792 q -1.59191,0.2948 -2.65319,0.5896 -1.00232,0.23584 -1.82776,0.70752 -0.82544,0.47168 -1.65088,1.1792 -0.76648,0.64856 -2.00464,1.70984 -0.5896,0.53064 -1.29712,0.82544 -0.64856,0.23584 -1.35608,0.47168 -0.64856,0.17688 -1.29712,0.41272 -0.5896,0.23584 -1.00232,0.76648 -0.41272,1.474 -1.23816,2.88904 -0.76648,1.35608 -0.76648,2.88903 0,0.8844 0.70752,1.59192 0.76648,0.64856 1.88672,1.12024 1.1792,0.47168 2.53528,0.82544 1.41504,0.35376 2.77112,0.53064 1.35608,0.17688 2.47632,0.2948 1.1792,0.059 1.82776,0.059 2.24048,0 4.42199,-0.41272 2.18152,-0.47168 4.422,-0.47168 2.29944,0 4.59888,0.23584 2.29944,0.17688 4.59887,0.17688 0.5896,0 1.7688,-0.059 1.1792,-0.059 2.29944,-0.2948 1.1792,-0.2948 2.00464,-0.76648 0.8844,-0.53064 0.8844,-1.35608 z"
           inkscape:connector-curvature="0" /></g><g
         id="text82"
         style="font-variant:normal;font-weight:normal;font-size:120.75px;font-family:'Special Elite';-inkscape-font-specification:SpecialElite-Regular;writing-mode:lr-tb;fill:#000000;fill-opacity:1;fill-rule:nonzero;stroke:none"><path
           id="path3552"
           d="m 298.39449,533.21704 q 0,0.82544 -0.41272,1.35608 -0.41272,0.53064 -1.06128,0.82544 -0.5896,0.2948 -1.35608,0.35376 -0.70752,0.11792 -1.35608,0.11792 -0.8844,0 -1.7688,-0.11792 -0.8844,-0.11792 -1.7688,-0.23584 -1.1792,0.41272 -2.83008,0.82544 -1.59192,0.47168 -2.88904,0.47168 -0.35376,0 -0.70752,-0.11792 -0.29479,-0.11792 -0.58959,-0.11792 -1.00232,0 -2.0636,0.35376 -1.00232,0.41272 -2.00464,0.41272 -1.70984,0 -3.30176,-0.47168 -1.53296,-0.41272 -3.2428,-0.53064 -2.77112,-0.23584 -4.30407,-2.12256 -1.474,-1.94568 -1.59192,-4.59888 1.82775,-1.12024 3.83239,-1.53296 2.0636,-0.41272 4.1272,-0.41272 1.1792,0 2.29944,0.059 1.1792,0.059 2.3584,0.17688 -0.17688,-4.42199 -0.76648,-8.84399 -0.5896,-4.422 -0.5896,-8.90295 0,-1.53296 0.059,-3.06592 0.11792,-1.53296 0.41272,-3.06592 0.2948,-1.53296 0.76648,-3.00696 0.47168,-1.53296 0.47168,-3.06592 0,-1.00231 -0.2948,-1.82775 -0.2948,-0.8844 -0.76648,-1.7688 -0.41272,-0.70752 -0.53064,-1.59192 -0.11792,-0.8844 -0.2948,-1.7688 -0.17688,-0.94336 -0.53064,-1.82776 -0.35376,-0.8844 -1.1792,-1.59192 -0.76648,-0.70752 -2.18152,-1.12024 -1.41504,-0.41272 -3.71448,-0.41272 -0.70752,0 -2.12255,0.23584 -1.35608,0.17688 -2.83008,0.53064 -1.41504,0.2948 -2.71216,0.76648 -1.23816,0.41272 -1.70984,0.8844 -0.2948,0.2948 -0.76648,0.82544 -0.41272,0.53064 -0.94336,1.12024 -0.47168,0.53064 -0.94336,1.00232 -0.47168,0.41272 -0.82544,0.47168 -0.8844,0.17688 -1.35608,0.2948 -0.41272,0.11792 -0.70752,0.35376 -0.23584,0.23584 -0.41272,0.70752 -0.17688,0.41272 -0.5896,1.23816 -0.11792,0.23584 -0.47168,0.94336 -0.35376,0.64856 -0.70751,0.64856 -0.2948,0 -0.41272,-0.23584 -0.11792,-0.23584 -0.41272,-0.23584 -0.11792,0 -0.35376,0.17688 -0.17688,0.11792 -0.2948,0.23584 l 0,1.65087 q -0.41272,0.47168 -0.76648,0.53064 -0.2948,0 -0.53064,0.059 -0.17688,0.059 -0.2948,0.2948 -0.059,0.23584 -0.059,1.12024 0,0.64856 -0.2948,1.1792 -0.2948,0.53064 -0.64856,1.06128 -0.2948,0.53064 -0.5896,1.12024 -0.2948,0.53064 -0.2948,1.23816 0,1.1792 0.2948,2.29944 0.35376,1.06128 0.35376,2.24048 0,0.76648 -0.23584,1.29712 -0.23584,0.53064 -0.5896,1.00232 -0.2948,0.41272 -0.53064,0.82544 -0.23584,0.41271 -0.23584,1.00231 0,0.82544 0.2948,1.53296 0.35376,0.64856 0.70752,1.35608 0.35376,0.70752 0.64856,1.474 0.35376,0.76648 0.35376,1.65088 0,1.00232 -0.23584,2.0636 -0.23584,1.00232 -0.23584,2.0636 0,1.23816 0.35376,1.94568 0.41272,0.64856 1.00232,1.00232 0.64856,0.35376 1.474,0.53064 0.82544,0.17688 1.65088,0.53064 0.88439,0.29479 1.76879,0.88439 0.8844,0.53064 1.65088,1.65088 l 0.35376,-0.059 q 1.00232,0 1.474,0.82544 0.47168,0.82544 0.47168,1.70984 0,0.82544 -0.35376,1.474 -0.35376,0.5896 -0.35376,1.59192 0,0.70752 -1.53296,1.1792 -1.53296,0.47168 -3.47863,0.70752 -1.94568,0.2948 -3.77344,0.35376 -1.7688,0.11792 -2.3584,0.11792 -0.70752,0 -2.18152,-0.059 -1.41504,0 -3.2428,-0.11792 -1.7688,-0.059 -3.71447,-0.23584 -1.94568,-0.17688 -3.59656,-0.53064 -1.65088,-0.2948 -2.83008,-0.82544 -1.12024,-0.47168 -1.41504,-1.1792 -0.2948,-0.70752 -0.5896,-1.53296 -0.2948,-0.8844 -0.2948,-1.70984 0,-0.8844 0.41272,-1.59192 0.47168,-0.70752 1.12024,-1.29712 0.8844,-0.82544 1.94568,-0.94336 1.06128,-0.17688 2.0636,-0.17688 1.06128,-0.059 2.00464,-0.17687 1.00232,-0.17688 1.70983,-0.94336 0.76648,-0.76648 1.1792,-2.41736 0.47168,-1.65088 0.47168,-4.65784 0,-0.76648 -0.11792,-1.53296 -0.11792,-0.82544 -0.2948,-1.53296 -0.17688,-0.76648 -0.2948,-1.35608 -0.11792,-0.5896 -0.11792,-0.8844 0,-0.35376 0.17688,-0.76648 0.23584,-0.41272 0.47168,-0.82544 0.2948,-0.47167 0.47168,-1.00231 0.23584,-0.53064 0.23584,-1.1792 0,-1.00232 -0.41272,-1.94568 -0.35376,-0.94336 -0.35376,-1.94568 0,-0.82544 0.2948,-1.59192 0.2948,-0.76648 0.2948,-1.59192 0,-0.64856 -0.35376,-1.23816 -0.35376,-0.5896 -0.35376,-1.29712 0,-0.64856 0.23584,-1.29712 0.23584,-0.70752 0.23584,-1.41504 0,-1.53295 -0.35376,-3.12487 -0.35376,-1.65088 -0.64856,-3.18384 -0.35376,-1.82776 -1.35607,-2.71216 -0.94336,-0.94336 -2.18152,-1.41504 -1.23816,-0.47168 -2.59424,-0.76648 -1.35608,-0.2948 -2.47632,-0.8844 -1.12024,-0.64856 -1.88672,-1.7688 -0.70752,-1.1792 -0.70752,-3.41967 0,-1.53296 0.8844,-2.3584 0.94336,-0.82544 2.24048,-1.1792 1.29712,-0.41272 2.71216,-0.47168 1.474,-0.059 2.53528,-0.059 1.70984,0 3.36071,0.53064 1.70984,0.47168 3.41968,0.5896 0.76648,0.059 1.474,0.53064 0.70752,0.41272 1.29712,1.06128 0.5896,0.5896 0.94336,1.35608 0.35376,0.76648 0.41272,1.53295 0,0.35376 0.23584,1.29712 0.23584,0.8844 0.53064,1.82776 0.35376,0.94336 0.70752,1.70984 0.41272,0.70752 0.82544,0.70752 0.35376,-0.2948 0.47168,-0.64856 0.17688,-0.41272 0.2948,-0.76648 0.059,-0.35376 0.76648,-0.94336 0.76648,-0.5896 1.65088,-1.23816 0.94335,-0.64856 1.76879,-1.23816 0.8844,-0.5896 1.23816,-0.94335 0.35376,-0.41272 0.53064,-0.82544 0.23584,-0.47168 0.41272,-0.82544 0.23584,-0.41272 0.53064,-0.64856 0.35376,-0.23584 1.06128,-0.23584 l 0.2948,0 q 0.64856,0 1.23816,-0.53064 0.5896,-0.5896 1.53296,-1.29712 0.94336,-0.70752 2.47632,-1.23816 1.53296,-0.5896 4.06824,-0.5896 2.18151,0 4.36303,0.11792 2.18152,0.059 4.1272,0.5896 2.00464,0.53064 3.71448,1.65088 1.7688,1.12024 3.06592,3.12488 1.00231,1.59191 1.65087,2.35839 0.64856,0.76648 1.06128,1.474 0.41272,0.70752 0.53064,1.70984 0.17688,1.00232 0.17688,3.00696 0,0.82544 0.2948,1.53296 0.2948,0.70752 0.64856,1.474 0.41272,0.70752 0.70752,1.53296 0.2948,0.82544 0.2948,1.88672 0,2.06359 -0.23584,4.12719 -0.23584,2.00464 -0.23584,4.06824 0,1.474 -0.5896,2.88904 -0.53064,1.41504 -0.53064,2.88904 0,0.70752 0.35376,1.35608 0.35376,0.64856 0.35376,1.47399 0,1.00232 -0.23584,2.0636 -0.23584,1.00232 -0.23584,2.00464 0,0.94336 0.41272,1.65088 0.47168,0.70752 0.47168,1.59192 0,0.47168 -0.23584,0.76648 -0.17688,0.2948 -0.47168,0.5896 -0.23584,0.2948 -0.47168,0.64856 -0.17688,0.2948 -0.17688,0.76648 0,0.8844 0.41272,1.82776 0.47168,0.8844 1.1792,1.65088 0.70752,0.70752 1.59192,1.17919 0.8844,0.41272 1.7688,0.41272 0.76648,0 1.29712,-0.2948 0.5896,-0.35376 1.23816,-0.35376 0.82544,0 1.474,0.70752 0.70752,0.64856 1.1792,1.59192 0.53064,0.94336 0.76648,1.94568 0.2948,1.00232 0.2948,1.65088 z m -12.73536,-22.2279 q 0,-0.5896 -0.41272,-1.12024 -0.35376,-0.5896 -1.00232,-0.5896 -0.64855,0 -0.88439,0.64856 -0.23584,0.5896 -0.23584,1.12024 0,0.64856 0.23584,1.23815 0.23584,0.5896 0.94335,0.5896 0.5896,0 0.8844,-0.35376 0.35376,-0.41272 0.47168,-1.41503 l 0,-0.11792 z m 1.00232,11.32031 q 0,-0.41272 -0.35376,-0.64856 -0.2948,-0.2948 -0.64856,-0.47168 -0.11792,0.35376 -0.41272,0.70752 -0.2948,0.35376 -0.5896,0.76648 -0.2948,0.41272 -0.5896,0.82544 -0.23583,0.41272 -0.23583,0.82544 0,0.47168 0.29479,0.70752 0.2948,0.23584 0.70752,0.41272 0.059,-0.35376 0.35376,-0.70752 0.35376,-0.35376 0.64856,-0.76648 0.2948,-0.41272 0.53064,-0.76648 0.2948,-0.41272 0.2948,-0.8844 z m -39.20837,-12.67639 q 0,-0.41272 -0.17688,-1.00232 -0.11792,-0.5896 -0.41272,-1.12024 -0.23584,-0.5896 -0.64856,-0.94336 -0.35376,-0.41272 -0.8844,-0.41272 -0.64856,0 -1.12024,0.41272 -0.47168,0.35376 -1.1792,0.35376 l -0.23584,0 q -0.17688,0.64856 -0.17688,1.23816 l 0.059,0.35376 0.059,-0.17688 q 0.17688,0.64856 0.70752,1.00232 0.53064,0.35376 1.12024,0.64856 0.64856,0.23584 1.29712,0.47168 0.64856,0.23584 1.12024,0.64856 0.47168,-0.53064 0.47168,-1.474 z"
           inkscape:connector-curvature="0" /></g><g
         id="text86"
         style="font-variant:normal;font-weight:normal;font-size:120.75px;font-family:'Special Elite';-inkscape-font-specification:SpecialElite-Regular;writing-mode:lr-tb;fill:#1b55aa;fill-opacity:1;fill-rule:nonzero;stroke:none"><path
           id="path3555"
           d="m 371.79965,475.90796 q 0,0.23584 -0.2948,0.94336 -0.2948,0.70752 -0.70752,1.53296 -0.35376,0.82544 -0.76648,1.53296 -0.41272,0.70752 -0.64856,0.94336 l 0.11792,0.059 q -0.11792,0 -0.23584,0.059 l -0.2948,0 q -0.23584,0.059 -0.53064,0.059 -0.23584,0 -0.53064,0 l 0.23584,-0.059 q -1.35607,-0.059 -2.47631,-0.47168 -1.06128,-0.47168 -1.7688,-1.70984 -0.11792,-0.23584 -0.35376,-0.82544 -0.23584,-0.64856 -0.47168,-1.35608 -0.23584,-0.70752 -0.41272,-1.29712 -0.11792,-0.64856 -0.11792,-0.94336 0,-0.47168 0.059,-1.00232 0.11792,-0.53064 0.11792,-1.00232 0,-1.82776 -0.35376,-3.59656 -0.35376,-1.7688 -0.35376,-3.59655 0,-1.1792 0.2948,-2.29944 0.2948,-1.12024 1.06128,-2.0636 l -0.2948,0 q -0.70752,0 -1.12024,-0.41272 -0.41272,-0.47168 -1.35608,-0.47168 -2.24048,0 -4.36304,0.53064 -2.12256,0.53064 -4.48095,0.53064 -0.94336,0 -1.88672,0 -0.94336,-0.059 -1.94568,-0.059 -1.82776,0 -3.59656,0.41272 -1.7688,0.41272 -3.41968,0.41272 -0.17688,0 -0.17688,-0.059 0,-0.11792 0.41272,-0.2948 0.41272,-0.23584 0.41272,-0.35376 0,-0.23584 -0.41272,-0.23584 -0.35376,0 -0.47168,0 -0.47168,0 -0.82544,0.47168 -0.2948,0.47168 -0.94336,0.64856 -0.8844,0.23584 -1.88671,0.23584 -1.00232,0 -1.94568,0 -0.5896,0 -1.70984,-0.059 -1.12024,-0.059 -2.24048,-0.23584 -1.12024,-0.23584 -2.0636,-0.64856 -0.8844,-0.47168 -1.00232,-1.29712 -0.64856,0.17688 -0.8844,0.64856 -0.17688,0.41272 -0.35376,0.8844 -0.11792,0.47168 -0.41272,0.8844 -0.2948,0.35376 -1.1792,0.41272 -1.65088,0.11792 -2.12256,1.06128 -0.47168,0.94336 -0.47168,2.12256 0,0.64856 0.059,1.29711 0.059,0.64856 0.059,1.29712 0,2.3584 -0.11792,4.7168 -0.059,2.29944 -0.059,4.65784 0,1.00232 0,2.71216 0.059,1.65087 0.23584,3.30175 0.23584,1.59192 0.64856,2.88904 0.41272,1.23816 1.1792,1.41504 0.47168,0.11792 1.00232,0.17688 0.53064,0 1.06128,0 2.0636,0 4.00928,-0.47168 2.00464,-0.47168 4.06824,-0.47168 0.82544,0 1.53296,0.23584 0.76648,0.23584 1.53295,0.23584 1.12024,0 1.70984,-1.06128 0.64856,-1.12024 0.8844,-2.53528 0.2948,-1.474 0.35376,-2.94799 0.059,-1.474 0.059,-2.18152 0,-1.474 -0.11792,-2.88904 -0.059,-1.474 -0.059,-2.948 l 0.35376,0 q 1.474,0 2.77112,0.47168 1.29712,0.47168 2.71216,0.47168 0.5896,0 0.8844,-0.059 0,1.1792 0.41272,2.3584 0.41272,1.1792 0.41272,2.41736 0,1.53296 -1.65088,1.94568 0.47168,0.82544 0.76648,1.65087 0.2948,0.82544 0.2948,1.70984 0,0.64856 -0.11792,1.29712 -0.11792,0.5896 -0.11792,1.23816 0,0.5896 0.35376,0.94336 0.41272,0.2948 0.41272,0.70752 0,0.70752 -0.5896,1.7688 -0.53064,1.06128 -0.53064,2.18152 0,1.29712 0.23584,2.71216 0.23584,1.41504 0.53064,2.94799 0.2948,1.53296 0.53064,3.12488 0.23584,1.53296 0.23584,3.12488 0,0.94336 -0.11792,1.94568 -0.059,1.00232 -0.41272,1.94568 -0.2948,0.8844 -0.8844,1.65088 -0.53064,0.76648 -1.41504,1.29712 -1.12024,-0.11792 -1.88672,-0.64856 -0.76648,-0.5896 -1.29712,-1.35608 -0.47168,-0.82544 -0.76648,-1.7688 -0.23584,-1.00232 -0.35376,-2.00464 -0.23584,-1.53296 -0.23584,-2.83008 0,-1.29712 -0.5896,-2.18152 -0.53064,-0.94336 -2.12256,-1.474 -1.53295,-0.53064 -4.83471,-0.53064 -0.94336,0 -2.71216,0.17688 -1.70984,0.17688 -3.41968,0.64856 -1.70984,0.41272 -3.00696,1.23816 -1.23816,0.82544 -1.23816,2.0636 0,0.70752 0.11792,1.41504 0.17688,0.64856 0.17688,1.35608 0,0.5896 -0.059,1.1792 -0.059,0.5896 -0.059,1.23816 0,1.59192 0.17688,3.18384 0.17688,1.53295 0.17688,3.12487 0,1.70984 -0.47168,3.36072 -0.41272,1.65088 -0.41272,3.36072 0,1.88672 0.8844,3.00696 0.94336,1.06128 2.3584,1.65088 1.41504,0.53064 3.06592,0.70752 1.65088,0.17688 3.06592,0.17688 2.83008,0 5.66015,-0.35376 2.83008,-0.35376 5.66016,-0.35376 1.7688,0 3.5376,0.17688 1.7688,0.17688 3.5376,0.17688 1.35608,0 3.00695,-0.059 1.65088,-0.11792 3.12488,-0.5896 1.53296,-0.47168 2.59424,-1.35608 1.12024,-0.94336 1.41504,-2.6532 0.059,-0.47168 0.2948,-0.64856 0.2948,-0.23584 0.5896,-0.35376 0.35376,-0.17688 0.5896,-0.35376 0.23584,-0.17688 0.23584,-0.5896 0,-0.47168 -0.35376,-1.06128 -0.35376,-0.64856 -0.47168,-1.1792 -0.23584,-1.12024 -0.2948,-2.24048 0,-1.1792 0,-2.29944 0,-1.76879 0.53064,-3.06591 0.5896,-1.35608 0.5896,-2.948 0,-0.47168 -0.059,-0.8844 0,-0.41272 0,-0.8844 0,-0.35376 0.53064,-0.70752 0.53064,-0.35376 1.23816,-0.5896 0.70752,-0.2948 1.41504,-0.47168 0.70752,-0.17688 1.06128,-0.17688 1.47399,0 2.41735,1.06128 0.94336,1.00232 1.41504,2.47632 0.53064,1.474 0.70752,3.06592 0.17688,1.59192 0.17688,2.71215 0,1.82776 -0.2948,4.1272 -0.2948,2.29944 -0.82544,4.7168 -0.47168,2.41736 -1.12024,4.7168 -0.64856,2.24047 -1.29712,3.95031 -0.35376,0.82544 -0.70751,1.23816 -0.2948,0.41272 -0.70752,0.70752 -0.35376,0.23584 -0.82544,0.53064 -0.41272,0.23584 -0.94336,0.82544 -0.47168,0.53064 -1.82776,0.70752 -1.29712,0.17688 -2.77112,0.17688 -1.12024,0 -2.12256,-0.059 -1.00232,-0.059 -1.53296,-0.059 -1.94568,0 -3.18384,0.47168 -1.17919,0.47168 -2.24047,0.47168 -0.76648,0 -1.00232,-0.2948 -0.23584,-0.35376 -0.70752,-0.35376 -0.41272,0 -0.76648,0.35376 -0.35376,0.35376 -1.06128,0.35376 -0.70752,0 -1.474,0 -0.70752,-0.059 -1.474,-0.059 -4.422,0 -8.78503,0.23584 -4.36304,0.2948 -8.78504,0.41272 -3.00696,0.11792 -5.95495,0.70752 -2.948,0.5896 -5.95496,0.5896 -1.06128,0 -2.41736,-0.23584 -1.35608,-0.17688 -2.59424,-0.70752 -1.1792,-0.53064 -2.00464,-1.41504 -0.82544,-0.94336 -0.82544,-2.29944 0,-1.29712 0.94336,-2.47632 0.94336,-1.1792 2.24048,-2.18152 1.35608,-1.00231 2.77112,-1.82775 1.41504,-0.8844 2.29944,-1.65088 -0.059,-0.47168 -0.059,-0.8844 0,-0.41272 0,-0.82544 0,-0.8844 0,-1.7688 0.059,-0.8844 0.35376,-1.7688 0.11792,-0.53064 0.5896,-1.23816 0.53064,-0.76648 0.53064,-1.29712 0,-0.41272 -0.17688,-0.76648 -0.11792,-0.35376 -0.23584,-0.76648 -0.64856,-1.59192 -0.94336,-2.83007 -0.23584,-1.23816 -0.23584,-3.00696 0,-1.06128 0,-1.82776 0.059,-0.82544 0.11792,-1.53296 0.11792,-0.76648 0.2948,-1.53296 0.23584,-0.82544 0.5896,-1.82776 -0.23584,-0.41272 -0.53064,-1.23816 -0.2948,-0.82544 -0.2948,-1.29712 l 0.82544,-8.37231 q -0.059,-0.17688 -0.059,-0.5896 0,-0.53064 0.17688,-1.06128 0.17688,-0.53064 0.17688,-1.12024 0,-1.35608 -0.47168,-2.6532 -0.47168,-1.35608 -0.47168,-2.71216 0,-0.47168 0.23584,-1.12023 0.23584,-0.64856 0.47168,-1.41504 0.2948,-0.76648 0.53064,-1.65088 0.23584,-0.94336 0.23584,-2.00464 0,-0.82544 -0.41272,-1.41504 -0.35376,-0.5896 -0.35376,-1.35608 0,-0.70752 0.35376,-1.41504 0.35376,-0.70752 0.35376,-1.53296 0,-1.1792 -0.47168,-2.24048 -0.41272,-1.12024 -0.8844,-2.12255 -0.70752,-1.474 -1.12024,-2.3584 -0.35376,-0.94336 -0.8844,-1.474 -0.53064,-0.5896 -1.474,-0.82544 -0.8844,-0.2948 -2.59424,-0.41272 -0.82544,-0.059 -1.59192,-0.47168 -0.70752,-0.47168 -1.29711,-1.1792 -0.53064,-0.70752 -0.8844,-1.53296 -0.35376,-0.82544 -0.35376,-1.59192 0,-1.06128 0.94336,-1.7688 0.94335,-0.76648 2.41735,-1.1792 1.474,-0.47168 3.30176,-0.70752 1.82776,-0.2948 3.5376,-0.41272 1.7688,-0.17688 3.18384,-0.23584 1.474,-0.059 2.24048,-0.17688 1.17919,-0.17688 2.29943,-0.23584 1.12024,-0.059 2.29944,-0.059 2.29944,0 4.59888,0.17688 2.3584,0.11792 4.65784,0.11792 2.47631,0 4.83471,-0.47168 2.41736,-0.47167 4.89368,-0.47167 2.24048,0 4.422,0.53063 2.18152,0.47168 4.30407,0.47168 2.0636,0 4.06824,-0.47168 2.00464,-0.53063 4.06824,-0.53063 0.8844,0 1.7688,0.17688 1.29712,1.41503 2.3584,2.35839 1.12024,0.94336 1.88671,1.94568 0.82544,0.94336 1.29712,2.24048 0.53064,1.29712 0.70752,3.41968 0.059,0.76648 0.059,1.88672 0,1.06128 0.059,2.12256 0.059,1.00232 0.2948,1.82775 0.2948,0.82544 0.8844,1.00232 0,0.82544 -0.82544,0.82544 0.059,0.82544 0.35376,1.70984 0.2948,0.82544 0.5896,1.70984 0.2948,0.82544 0.53064,1.70984 0.23584,0.82544 0.23584,1.59192 z m -51.05932,14.50415 q -0.35376,0 -0.64856,0.11792 -0.2948,0.11792 -0.41272,0.53064 2.24048,1.29712 3.53759,2.47632 1.35608,1.12024 2.0636,1.82776 0.76648,0.70752 1.12024,0.82544 0.35376,0.059 0.70752,-0.76648 0.47168,-1.06128 -0.17688,-2.00464 -0.5896,-0.94336 -1.70984,-1.59192 -1.06128,-0.64856 -2.3584,-1.00232 -1.23815,-0.41272 -2.12255,-0.41272 z"
           inkscape:connector-curvature="0" /></g><g
         id="text90"
         style="font-variant:normal;font-weight:normal;font-size:120.75px;font-family:'Special Elite';-inkscape-font-specification:SpecialElite-Regular;writing-mode:lr-tb;fill:#1b55aa;fill-opacity:1;fill-rule:nonzero;stroke:none"><path
           id="path3558"
           d="m 450.09848,532.21472 q 0,0.76648 -0.41272,1.53296 -0.35376,0.76648 -1.23816,0.76648 -0.64856,0 -1.1792,-0.11792 -0.53064,-0.17688 -1.1792,-0.17688 -0.94336,0 -1.00232,0.35376 0,0.35376 -0.11792,0.76648 -0.11792,0.47168 -0.8844,0.82544 -0.70752,0.35376 -3.06591,0.35376 -1.35608,0 -2.71216,-0.23584 -1.29712,-0.23584 -2.6532,-0.23584 -1.00232,0 -2.18152,0.2948 -0.47168,-0.5896 -1.06128,-0.8844 -0.53064,-0.2948 -1.06128,-0.64856 -0.47168,-0.2948 -0.82544,-0.76648 -0.35376,-0.47168 -0.35376,-1.41504 0,-0.64856 -0.82544,-0.64856 -0.2948,0 -0.5896,0.059 -0.23584,0.059 -0.53064,0.059 -0.2948,0 -0.53063,-0.11792 -0.17688,-0.17688 -0.17688,-0.47168 0,-0.11792 0.059,-0.17688 -1.23816,0.059 -1.88672,0.82544 -0.64856,0.76648 -1.41504,1.59192 -0.53064,0.53064 -1.12024,0.82544 -0.5896,0.23584 -1.23816,0.41272 -0.5896,0.23584 -1.29712,0.53064 -0.64856,0.2948 -1.29712,0.8844 -0.53064,0.53064 -1.7688,0.76648 -1.23816,0.2948 -2.6532,0.41272 -1.35608,0.17688 -2.71215,0.17688 -1.29712,0.059 -2.0636,0.059 -1.7688,0 -2.88904,-0.2948 -1.06128,-0.2948 -1.94568,-0.76648 -0.82544,-0.41272 -1.7688,-0.94336 -0.94336,-0.47168 -2.41736,-0.94336 -1.59192,-0.47168 -3.83239,-1.7688 -2.24048,-1.29712 -4.30408,-3.00696 -2.00464,-1.70984 -3.41968,-3.65551 -1.41504,-2.00464 -1.41504,-3.8324 0,-0.82544 -0.41272,-1.65088 -0.35376,-0.8844 -0.94336,-1.65088 -0.53064,-0.82544 -1.12024,-1.59192 -0.5896,-0.82544 -0.94336,-1.53296 -1.12024,-2.24048 -1.474,-4.71679 -0.2948,-2.47632 -0.2948,-4.95264 0,-2.29944 0.35376,-4.36304 0.35376,-2.12256 0.8844,-4.1272 0.53064,-2.06359 1.06128,-4.06823 0.5896,-2.00464 1.06128,-4.18616 0.2948,-1.53296 0.82544,-2.29944 0.53064,-0.82544 1.1792,-1.41504 0.70752,-0.5896 1.474,-1.12024 0.82544,-0.53064 1.65088,-1.53296 0.35376,-0.41272 0.41272,-0.70752 0.11792,-0.35376 0.17688,-0.53064 0.11792,-0.23584 0.35376,-0.29479 0.2948,-0.11792 1.06128,-0.11792 0.47168,0 0.70752,-0.2948 0.2948,-0.2948 0.53064,-0.70752 0.23584,-0.41272 0.41272,-0.82544 0.23584,-0.47168 0.5896,-0.70752 0.35376,-0.23584 0.8844,-0.35376 0.53064,-0.11792 1.12023,-0.17688 0.5896,-0.059 1.12024,-0.11792 0.5896,-0.059 1.06128,-0.23584 1.23816,-0.53064 2.00464,-0.94336 0.82544,-0.41272 1.53296,-0.70752 0.76648,-0.35376 1.70984,-0.53064 0.94336,-0.17688 2.47632,-0.17688 2.00464,0 3.95032,0.53064 2.00463,0.47168 3.95031,1.06128 1.94568,0.5896 3.89136,1.12024 1.94568,0.47168 4.00928,0.47168 1.65088,0 2.59424,-0.70752 1.00232,-0.70752 1.474,-1.82776 0.53063,-1.12024 0.64855,-2.47632 0.17688,-1.35608 0.17688,-2.6532 0,-2.29944 -0.2948,-4.53992 -0.29479,-2.29943 -0.41271,-4.53991 l -0.53064,0.23584 q -0.5896,0 -1.06128,-0.2948 -0.47168,-0.35376 -0.8844,-0.70752 -0.41272,-0.41272 -0.8844,-0.70752 -0.47168,-0.35376 -1.06128,-0.35376 -0.64856,0 -0.82544,0.35376 -0.17688,0.2948 -0.5896,0.5896 -0.64856,0.059 -1.35608,0.11792 -0.64856,0 -1.29712,0 l -2.59424,0 q -0.82544,0 -1.88672,-0.47168 -1.00232,-0.53064 -1.94567,-1.29712 -0.94336,-0.82544 -1.59192,-1.70984 -0.5896,-0.94336 -0.5896,-1.82776 0,-0.76648 0.47168,-1.59192 0.53064,-0.8844 1.23816,-1.59192 0.76647,-0.70752 1.65087,-1.12024 0.8844,-0.47167 1.70984,-0.47167 0.76648,0 1.41504,0.41271 0.64856,0.35376 1.41504,0.35376 1.29712,0 2.47632,-0.41272 1.23816,-0.41271 2.59424,-0.41271 1.35608,0 2.53528,0.47167 1.23816,0.41272 2.59423,0.41272 1.00232,0 2.00464,-0.059 1.06128,-0.059 2.0636,-0.059 1.06128,0 2.12256,0.17688 1.12024,0.17688 2.0636,0.70752 l 0,0.35376 q 0,0.82544 0.17688,1.65088 0.23584,0.76648 0.47168,1.59192 0.2948,0.76648 0.47168,1.53296 0.23584,0.76648 0.23584,1.59192 0,1.06128 -0.53064,2.0636 -0.47168,0.94336 -0.47168,2.0636 0,2.0636 0.47168,4.12719 0.47168,2.00464 0.47168,4.06824 0,5.18848 -0.059,10.37695 -0.059,5.12952 -0.059,10.37696 0,5.30639 -0.35376,10.55383 -0.35376,5.18848 -0.35376,10.49487 0,1.94568 0.17688,4.422 0.17688,2.41736 0.94336,4.59888 0.76648,2.12256 2.24048,3.59656 1.53296,1.47399 4.18615,1.47399 0.53064,0 1.00232,-0.059 0.53064,-0.11792 1.06128,-0.11792 0.76648,0 1.35608,0.41272 0.5896,0.41272 1.00232,1.06128 0.41272,0.64856 0.5896,1.41504 0.23584,0.76648 0.23584,1.41504 z m -21.40247,-29.24414 q 0,-2.18152 -0.41272,-4.65784 -0.35376,-2.47631 -1.35607,-4.59887 -0.94336,-2.18152 -2.6532,-3.65552 -1.65088,-1.474 -4.18616,-1.59192 -0.53064,-0.059 -1.29712,-0.47168 -0.70752,-0.41272 -1.474,-0.8844 -0.76648,-0.47168 -1.53296,-0.82544 -0.70752,-0.41272 -1.29712,-0.41272 -0.53064,0 -1.00232,0.23584 -0.47168,0.17688 -0.94335,0.47168 -0.47168,0.23584 -0.94336,0.47168 -0.47168,0.17688 -1.06128,0.17688 -1.00232,0 -1.94568,-0.11792 -0.8844,-0.11792 -1.88672,-0.11792 -2.948,0 -5.36536,1.7688 -2.3584,1.7688 -4.06823,4.422 -1.70984,2.59424 -2.6532,5.66015 -0.94336,3.00696 -0.94336,5.54224 0,1.06128 0.11792,2.12256 0.17688,1.06128 0.17688,2.12256 0,0.70752 -0.41272,1.1792 -0.35376,0.41272 -0.8844,0.8844 -0.47168,0.41272 -0.8844,0.94336 -0.35376,0.47167 -0.35376,1.17919 l 0.47168,0 q 1.53296,0 2.3584,0.5896 0.8844,0.53064 1.29712,1.474 0.47168,0.8844 0.70752,2.0636 0.2948,1.1792 0.64856,2.41736 0.35376,1.1792 1.00231,2.29944 0.70752,1.12024 2.00464,2.00464 0.94336,0.64856 2.0636,1.41504 1.1792,0.76648 2.41736,1.41504 1.29712,0.64856 2.53528,1.12023 1.29712,0.41272 2.47632,0.41272 1.88672,0 3.71447,-0.53064 1.82776,-0.58959 3.71448,-0.58959 0.70752,0 1.53296,0.17688 1.35608,-2.12256 3.12488,-4.00928 1.82776,-1.94568 4.422,-2.71216 l -0.059,-1.29712 q 0,-1.94568 0.41272,-3.77344 0.47168,-1.88672 1.00232,-3.83239 0.53063,-1.94568 0.94335,-4.00928 0.47168,-2.0636 0.47168,-4.48096 z"
           inkscape:connector-curvature="0" /></g><g
         id="text94"
         style="font-variant:normal;font-weight:normal;font-size:120.75px;font-family:'Special Elite';-inkscape-font-specification:SpecialElite-Regular;writing-mode:lr-tb;fill:#1b55aa;fill-opacity:1;fill-rule:nonzero;stroke:none"><path
           id="path3561"
           d="m 522.91403,532.21472 q 0,0.76648 -0.41272,1.53296 -0.35376,0.76648 -1.23816,0.76648 -0.64856,0 -1.1792,-0.11792 -0.53064,-0.17688 -1.1792,-0.17688 -0.94335,0 -1.00231,0.35376 0,0.35376 -0.11792,0.76648 -0.11792,0.47168 -0.8844,0.82544 -0.70752,0.35376 -3.06592,0.35376 -1.35608,0 -2.71216,-0.23584 -1.29712,-0.23584 -2.6532,-0.23584 -1.00232,0 -2.18152,0.2948 -0.47168,-0.5896 -1.06128,-0.8844 -0.53064,-0.2948 -1.06128,-0.64856 -0.47168,-0.2948 -0.82544,-0.76648 -0.35375,-0.47168 -0.35375,-1.41504 0,-0.64856 -0.82544,-0.64856 -0.2948,0 -0.5896,0.059 -0.23584,0.059 -0.53064,0.059 -0.2948,0 -0.53064,-0.11792 -0.17688,-0.17688 -0.17688,-0.47168 0,-0.11792 0.059,-0.17688 -1.23816,0.059 -1.88672,0.82544 -0.64856,0.76648 -1.41504,1.59192 -0.53064,0.53064 -1.12024,0.82544 -0.5896,0.23584 -1.23816,0.41272 -0.5896,0.23584 -1.29712,0.53064 -0.64856,0.2948 -1.29712,0.8844 -0.53064,0.53064 -1.7688,0.76648 -1.23816,0.2948 -2.65319,0.41272 -1.35608,0.17688 -2.71216,0.17688 -1.29712,0.059 -2.0636,0.059 -1.7688,0 -2.88904,-0.2948 -1.06128,-0.2948 -1.94568,-0.76648 -0.82544,-0.41272 -1.7688,-0.94336 -0.94336,-0.47168 -2.41736,-0.94336 -1.59191,-0.47168 -3.83239,-1.7688 -2.24048,-1.29712 -4.30408,-3.00696 -2.00464,-1.70984 -3.41968,-3.65551 -1.41504,-2.00464 -1.41504,-3.8324 0,-0.82544 -0.41272,-1.65088 -0.35376,-0.8844 -0.94336,-1.65088 -0.53064,-0.82544 -1.12024,-1.59192 -0.58959,-0.82544 -0.94335,-1.53296 -1.12024,-2.24048 -1.474,-4.71679 -0.2948,-2.47632 -0.2948,-4.95264 0,-2.29944 0.35376,-4.36304 0.35376,-2.12256 0.8844,-4.1272 0.53064,-2.06359 1.06127,-4.06823 0.5896,-2.00464 1.06128,-4.18616 0.2948,-1.53296 0.82544,-2.29944 0.53064,-0.82544 1.1792,-1.41504 0.70752,-0.5896 1.474,-1.12024 0.82544,-0.53064 1.65088,-1.53296 0.35376,-0.41272 0.41272,-0.70752 0.11792,-0.35376 0.17688,-0.53064 0.11792,-0.23584 0.35376,-0.29479 0.2948,-0.11792 1.06128,-0.11792 0.47168,0 0.70752,-0.2948 0.2948,-0.2948 0.53064,-0.70752 0.23584,-0.41272 0.41272,-0.82544 0.23584,-0.47168 0.5896,-0.70752 0.35376,-0.23584 0.8844,-0.35376 0.53064,-0.11792 1.12024,-0.17688 0.5896,-0.059 1.12024,-0.11792 0.5896,-0.059 1.06128,-0.23584 1.23815,-0.53064 2.00463,-0.94336 0.82544,-0.41272 1.53296,-0.70752 0.76648,-0.35376 1.70984,-0.53064 0.94336,-0.17688 2.47632,-0.17688 2.00464,0 3.95032,0.53064 2.00464,0.47168 3.95031,1.06128 1.94568,0.5896 3.89136,1.12024 1.94568,0.47168 4.00928,0.47168 1.65088,0 2.59424,-0.70752 1.00232,-0.70752 1.474,-1.82776 0.53064,-1.12024 0.64856,-2.47632 0.17688,-1.35608 0.17688,-2.6532 0,-2.29944 -0.2948,-4.53992 -0.2948,-2.29943 -0.41272,-4.53991 l -0.53064,0.23584 q -0.5896,0 -1.06128,-0.2948 -0.47168,-0.35376 -0.8844,-0.70752 -0.41272,-0.41272 -0.8844,-0.70752 -0.47168,-0.35376 -1.06128,-0.35376 -0.64856,0 -0.82544,0.35376 -0.17688,0.2948 -0.5896,0.5896 -0.64856,0.059 -1.35608,0.11792 -0.64856,0 -1.29712,0 l -2.59424,0 q -0.82544,0 -1.88671,-0.47168 -1.00232,-0.53064 -1.94568,-1.29712 -0.94336,-0.82544 -1.59192,-1.70984 -0.5896,-0.94336 -0.5896,-1.82776 0,-0.76648 0.47168,-1.59192 0.53064,-0.8844 1.23816,-1.59192 0.76648,-0.70752 1.65088,-1.12024 0.8844,-0.47167 1.70983,-0.47167 0.76648,0 1.41504,0.41271 0.64856,0.35376 1.41504,0.35376 1.29712,0 2.47632,-0.41272 1.23816,-0.41271 2.59424,-0.41271 1.35608,0 2.53528,0.47167 1.23816,0.41272 2.59424,0.41272 1.00232,0 2.00463,-0.059 1.06128,-0.059 2.0636,-0.059 1.06128,0 2.12256,0.17688 1.12024,0.17688 2.0636,0.70752 l 0,0.35376 q 0,0.82544 0.17688,1.65088 0.23584,0.76648 0.47168,1.59192 0.2948,0.76648 0.47168,1.53296 0.23584,0.76648 0.23584,1.59192 0,1.06128 -0.53064,2.0636 -0.47168,0.94336 -0.47168,2.0636 0,2.0636 0.47168,4.12719 0.47168,2.00464 0.47168,4.06824 0,5.18848 -0.059,10.37695 -0.059,5.12952 -0.059,10.37696 0,5.30639 -0.35376,10.55383 -0.35376,5.18848 -0.35376,10.49487 0,1.94568 0.17688,4.422 0.17688,2.41736 0.94336,4.59888 0.76648,2.12256 2.24048,3.59656 1.53296,1.47399 4.18616,1.47399 0.53064,0 1.00231,-0.059 0.53064,-0.11792 1.06128,-0.11792 0.76648,0 1.35608,0.41272 0.5896,0.41272 1.00232,1.06128 0.41272,0.64856 0.5896,1.41504 0.23584,0.76648 0.23584,1.41504 z m -21.40246,-29.24414 q 0,-2.18152 -0.41272,-4.65784 -0.35376,-2.47631 -1.35608,-4.59887 -0.94336,-2.18152 -2.6532,-3.65552 -1.65088,-1.474 -4.18616,-1.59192 -0.53064,-0.059 -1.29712,-0.47168 -0.70752,-0.41272 -1.474,-0.8844 -0.76648,-0.47168 -1.53296,-0.82544 -0.70751,-0.41272 -1.29711,-0.41272 -0.53064,0 -1.00232,0.23584 -0.47168,0.17688 -0.94336,0.47168 -0.47168,0.23584 -0.94336,0.47168 -0.47168,0.17688 -1.06128,0.17688 -1.00232,0 -1.94568,-0.11792 -0.8844,-0.11792 -1.88672,-0.11792 -2.948,0 -5.36536,1.7688 -2.35839,1.7688 -4.06823,4.422 -1.70984,2.59424 -2.6532,5.66015 -0.94336,3.00696 -0.94336,5.54224 0,1.06128 0.11792,2.12256 0.17688,1.06128 0.17688,2.12256 0,0.70752 -0.41272,1.1792 -0.35376,0.41272 -0.8844,0.8844 -0.47168,0.41272 -0.8844,0.94336 -0.35376,0.47167 -0.35376,1.17919 l 0.47168,0 q 1.53296,0 2.3584,0.5896 0.8844,0.53064 1.29712,1.474 0.47168,0.8844 0.70752,2.0636 0.2948,1.1792 0.64856,2.41736 0.35376,1.1792 1.00232,2.29944 0.70752,1.12024 2.00464,2.00464 0.94335,0.64856 2.06359,1.41504 1.1792,0.76648 2.41736,1.41504 1.29712,0.64856 2.53528,1.12023 1.29712,0.41272 2.47632,0.41272 1.88672,0 3.71448,-0.53064 1.82776,-0.58959 3.71447,-0.58959 0.70752,0 1.53296,0.17688 1.35608,-2.12256 3.12488,-4.00928 1.82776,-1.94568 4.422,-2.71216 l -0.059,-1.29712 q 0,-1.94568 0.41272,-3.77344 0.47168,-1.88672 1.00232,-3.83239 0.53064,-1.94568 0.94336,-4.00928 0.47168,-2.0636 0.47168,-4.48096 z"
           inkscape:connector-curvature="0" /></g><g
         id="text98"
         style="font-variant:normal;font-weight:normal;font-size:120.75px;font-family:'Special Elite';-inkscape-font-specification:SpecialElite-Regular;writing-mode:lr-tb;fill:#1b55aa;fill-opacity:1;fill-rule:nonzero;stroke:none"><path
           id="path3564"
           d="m 563.6554,460.75525 q 0,1.70984 -0.5896,3.5376 -0.53064,1.7688 -1.59192,3.30175 -1.06128,1.474 -2.59424,2.47632 -1.474,0.94336 -3.30176,0.94336 -1.23816,0 -3.06592,-0.35376 -1.82776,-0.41272 -3.53759,-1.12024 -1.65088,-0.76648 -2.88904,-1.94568 -1.1792,-1.17919 -1.1792,-2.77111 0,-1.41504 0.2948,-2.88904 0.35376,-1.53296 0.41272,-3.06592 0.5896,-0.2948 1.1792,-1.06128 0.5896,-0.76648 1.12024,-1.53296 0.5896,-0.82544 1.12024,-1.474 0.58959,-0.64856 1.17919,-0.70752 l -0.2948,0.11792 q 0.82544,-0.35376 1.70984,-0.5896 0.94336,-0.23584 1.88672,-0.23584 1.23816,0 2.948,0.64856 1.7688,0.5896 3.36072,1.59192 1.59192,1.00232 2.71216,2.3584 1.12024,1.35608 1.12024,2.77112 z m 28.53662,71.75427 q 0,1.00232 -0.41272,1.88672 -0.35376,0.8844 -1.06128,1.53296 -0.64856,0.70752 -1.53296,1.12024 -0.8844,0.41272 -1.94568,0.41272 -0.41272,0 -0.53064,-0.11792 -0.11792,-0.11792 -0.41272,-0.41272 -0.82544,-0.8844 -2.00464,-1.06128 -1.1792,-0.11792 -2.47632,-0.2948 -1.23816,-0.11792 -2.41735,-0.64856 -1.12024,-0.47168 -1.82776,-2.00464 -0.47168,-1.00232 -1.00232,-1.29712 -0.53064,-0.2948 -1.65088,-0.2948 -2.59424,0 -4.95264,0.82544 -2.3584,0.82544 -4.65784,1.88672 -2.29943,1.00232 -4.71679,1.82776 -2.3584,0.82544 -4.89368,0.82544 -1.41504,0 -2.83008,-0.2948 -1.35608,-0.23584 -2.6532,-0.82544 -0.2948,0.2948 -0.70752,0.41272 -0.35375,0.11792 -0.82543,0.11792 -0.41272,0 -0.82544,-0.059 -0.35376,-0.059 -0.64856,-0.059 -0.059,0 -0.64856,0.17688 -0.5896,0.23584 -0.70752,0.2948 l 0.35376,0.5896 q -0.35376,0.53064 -1.59192,1.00232 -1.23816,0.53064 -2.71216,0.8844 -1.41504,0.35376 -2.77112,0.5896 -1.35608,0.23584 -2.0636,0.23584 -1.88672,0 -3.12487,-0.64856 -1.1792,-0.5896 -2.3584,-2.12256 -0.41272,-0.5896 -1.06128,-1.1792 -0.5896,-0.5896 -1.1792,-1.1792 -0.53064,-0.64856 -0.94336,-1.35608 -0.35376,-0.70752 -0.35376,-1.474 0,-0.8844 0.94336,-1.474 0.94336,-0.5896 2.24048,-0.94336 1.29712,-0.41272 2.59424,-0.53064 1.29711,-0.17688 2.00463,-0.17688 1.41504,0 2.83008,0.41272 1.41504,0.35376 2.83008,0.35376 1.29712,0 2.47632,-0.35376 1.1792,-0.35376 2.47632,-0.35376 1.12024,0 2.18152,0.17688 1.12023,0.11792 2.24047,0.11792 1.41504,0 2.71216,-0.47168 1.35608,-0.53064 2.53528,-1.35608 0.47168,-2.88903 0.64856,-5.77807 0.23584,-2.88904 0.23584,-5.83704 0,-2.88904 -0.47168,-5.77807 -0.47168,-2.88904 -0.47168,-5.71912 0,-0.23584 0.11792,-0.23584 0.11792,-0.059 0.23584,-0.059 0.17688,-0.059 0.2948,-0.11792 0.11792,-0.11792 0.11792,-0.47168 0,-1.23816 -0.35376,-2.41736 -0.35376,-1.1792 -0.35376,-2.41736 0,-1.53295 0.41272,-3.00695 0.41272,-1.474 0.41272,-3.00696 0,-1.06128 -0.47168,-2.12256 -0.47168,-1.06128 -1.23816,-1.88672 -0.76648,-0.82544 -1.7688,-1.29712 -1.00232,-0.53064 -2.12256,-0.53064 -1.23816,0 -2.47631,0.2948 -1.1792,0.2948 -2.47632,0.70752 -1.29712,0.35376 -2.6532,0.64856 -1.29712,0.2948 -2.77112,0.2948 -1.70984,0 -3.36072,-0.23584 -1.65088,-0.23584 -3.36072,-0.53064 -0.82543,-0.11792 -1.88671,-0.23584 -1.00232,-0.11792 -1.94568,-0.41272 -0.94336,-0.2948 -1.59192,-0.8844 -0.64856,-0.5896 -0.64856,-1.70984 0,-2.0636 0.70752,-3.12487 0.76648,-1.12024 1.82776,-1.65088 1.12024,-0.53064 2.47632,-0.64856 1.35607,-0.11792 2.59423,-0.23584 2.24048,-0.17688 4.422,-0.2948 2.24048,-0.17688 4.48096,-0.17688 2.77112,0 5.42431,0.35376 2.71216,0.2948 5.48328,0.2948 1.94568,0 3.71448,0.5896 1.7688,0.5896 3.06592,1.82776 1.35608,1.17919 2.12255,3.00695 0.76648,1.82776 0.76648,4.24512 0,1.59192 -0.70752,3.12488 -0.64855,1.474 -1.70983,2.6532 0.41272,0.76648 0.82544,1.06128 0.41272,0.23584 0.76647,0.47168 0.35376,0.17688 0.5896,0.53064 0.23584,0.2948 0.23584,1.17919 0,0.47168 0.11792,1.12024 0.17688,0.5896 0.82544,0.64856 0,3.18384 -0.059,6.30872 -0.059,3.06592 -0.059,6.1908 0,2.65319 0,5.30639 0.059,2.6532 0.47168,5.3064 0.23584,1.65088 0.94336,2.53528 0.70752,0.8844 2.53528,0.8844 2.6532,0 5.24744,-0.53064 2.59424,-0.5896 5.24743,-0.5896 1.53296,0 2.88904,0.76648 1.41504,0.76648 2.6532,1.65087 1.29712,0.8844 2.47632,1.65088 1.1792,0.76648 2.24048,0.76648 0.47168,0 0.76648,0.35376 0.2948,0.2948 0.41272,0.76648 0.17688,0.41272 0.17688,0.8844 0.059,0.47168 0.059,0.82544 z"
           inkscape:connector-curvature="0" /></g></g></g></svg>